<svg xmlns:xlink="http://www.w3.org/1999/xlink" xmlns="http://www.w3.org/2000/svg" viewBox="0 0 24 24" data-testid="svg-icon" class="" height="24" width="24"><path d="M7.5 18.8c-.3 0-.6-.2-.7-.5L6 15.8c-.5-1.5-.1-3.2 1-4.3.7-.7 1-1.8.6-2.7l-.8-2.6c-.1-.4.1-.8.5-.9.4-.1.8.1.9.5L9 8.2c.5 1.5.1 3.2-1 4.3-.7.7-1 1.8-.6 2.7l.8 2.5c.1.4-.1.8-.5.9 0 .1-.1.2-.2.2zm4.5 0c-.3 0-.6-.2-.7-.5l-.8-2.5c-.5-1.5-.1-3.2 1-4.3.7-.7 1-1.8.6-2.7l-.8-2.5c-.1-.4.1-.8.5-.9.4-.1.8.1.9.5l.8 2.5c.5 1.5.1 3.2-1 4.3-.7.7-1 1.8-.6 2.7l.8 2.5c.1.4-.1.8-.5.9 0-.1-.1 0-.2 0zm4.5 0c-.3 0-.6-.2-.7-.5l-.8-2.5c-.5-1.5-.1-3.2 1-4.3.7-.7 1-1.8.6-2.7l-.8-2.5c-.1-.4.1-.8.5-.9.4-.1.8.1.9.5l.8 2.3c.5 1.5.1 3.2-1 4.3-.7.7-1 1.8-.6 2.7l.8 2.5c.1.4-.1.8-.5.9 0 .1-.1.2-.2.2z" fill="#333333"></path></svg>