<svg xmlns:xlink="http://www.w3.org/1999/xlink" xmlns="http://www.w3.org/2000/svg" viewBox="0 0 24 24" data-testid="svg-icon" class="" height="24" width="24"><path fill-rule="evenodd" clip-rule="evenodd" d="M19.242 11.718a7.251 7.251 0 0 1-5.18 7.231 7.245 7.245 0 0 1-9.298-7.402 7.25 7.25 0 0 1 10.15-6.184.75.75 0 1 0 .603-1.373 8.747 8.747 0 0 0-12.25 7.463 8.748 8.748 0 1 0 17.474.205.75.75 0 0 0-1.5.06z" fill="#333333"></path><path fill-rule="evenodd" clip-rule="evenodd" d="M16.968 15.943a5.56 5.56 0 0 0-4.978-3.089 5.554 5.554 0 0 0-4.977 3.089.75.75 0 0 0 1.344.666 4.048 4.048 0 0 1 3.633-2.255 4.057 4.057 0 0 1 3.634 2.255.75.75 0 0 0 1.344-.666zm.352-5.253a2.347 2.347 0 0 0-2.217-1.568 2.351 2.351 0 0 0-2.217 1.568.75.75 0 0 0 1.414.499.85.85 0 0 1 1.605 0 .75.75 0 1 0 1.415-.5zm-6.222 0a2.351 2.351 0 0 0-4.434 0 .75.75 0 0 0 1.414.499.85.85 0 0 1 1.605 0 .75.75 0 1 0 1.415-.5z" fill="#333333"></path><path fill-rule="evenodd" clip-rule="evenodd" d="M20.748 7.558c0-.366-.157-.916-.407-1.498-.491-1.14-1.307-2.456-1.307-2.456a.75.75 0 0 0-1.274 0s-.817 1.316-1.308 2.456c-.25.582-.407 1.132-.407 1.498l.001-.037a2.446 2.446 0 0 0 2.31 2.565.561.561 0 0 0 .082 0 2.443 2.443 0 0 0 2.309-2.565l.001.037zm-2.351-2.057c-.195.36-.401.767-.567 1.152-.153.356-.285.681-.285.905l-.001.038a.948.948 0 0 0 .853.989.948.948 0 0 0 .852-.989l-.001-.038c0-.224-.132-.549-.285-.905a14.827 14.827 0 0 0-.566-1.152z" fill="#333333"></path></svg>