<svg xmlns:xlink="http://www.w3.org/1999/xlink" xmlns="http://www.w3.org/2000/svg" viewBox="0 0 24 24" data-testid="svg-icon" class="" height="24" width="24"><path d="M18.5 8.2c-.3-.3-.7-.4-1.1-.1-.3.3-.4.7-.1 1.1.8 1 .9 3 .6 4.4-.5 3.3-1.8 5.6-3.2 5.8h-.1l-1.4-.7c-.5-.3-1.1-.3-1.6 0l-1.4.7h-.1c-1.4-.2-2.7-2.5-3.3-5.8-.3-1.8 0-4 1-4.7.8-.6 2.1 0 3.1.5.4.2.9.3 1.4.3h.2l.1-.1.1-.1.1-.1.1-.1V6.1c0-.4-.3-.8-.8-.8s-.8.3-.8.8v1.8c-1.5-1-3.1-1.2-4.3-.4-1.7 1.1-2 3.9-1.7 6.2.5 3.2 2 6.7 4.6 7h.2c.3 0 .6-.1.8-.2l1.4-.7h.3l1.3.7c.3.2.6.2 1 .2 2.6-.3 4-3.8 4.5-7 .3-1.6.2-4-.9-5.5z" fill="#333333"></path><path d="M14 8c.2.2.4.3.7.4h.3c.1 0 .3 0 .4-.1.8-.2 1.6-.5 2.2-1.1.6-.6.9-1.4 1.1-2.2.1-.2.1-.5 0-.7-.1-.3-.2-.5-.4-.7-.2-.2-.4-.3-.7-.4-.2-.1-.5-.1-.7 0-.8.2-1.6.5-2.2 1.2-.6.6-.9 1.4-1.1 2.2-.1.2-.1.5 0 .7.1.3.2.5.4.7zm1.8-2.5c.4-.4.8-.6 1.4-.7-.1.5-.3 1-.7 1.4-.4.3-.8.6-1.4.7.2-.5.4-1 .7-1.4z" fill="#333333"></path></svg>