<svg xmlns:xlink="http://www.w3.org/1999/xlink" xmlns="http://www.w3.org/2000/svg" viewBox="0 0 24 24" data-testid="svg-icon" class="" height="24" width="24"><path fill-rule="evenodd" clip-rule="evenodd" d="M17.85 5.853c.131-.305.19-.678.048-1.052-.142-.373-.435-.612-.736-.751a2.55 2.55 0 0 0-.97-.208 4.845 4.845 0 0 0-1.082.094 6.814 6.814 0 0 0-1.128.325c-.371.142-.73.314-1.057.51a4.845 4.845 0 0 0-.902.68.75.75 0 0 0-1.49.123V7.27c-2.418-.327-4.053.478-5.054 1.725-.967 1.205-1.272 2.732-1.272 3.77a7.075 7.075 0 0 0 14.151 0c0-1.027-.28-2.546-1.177-3.749a4.422 4.422 0 0 0-1.553-1.321c.267-.116.526-.247.766-.391a4.87 4.87 0 0 0 .87-.65c.242-.233.456-.502.585-.801Zm-1.447-.481c-.04.055-.097.122-.178.2a3.36 3.36 0 0 1-.6.444 5.317 5.317 0 0 1-.823.396 5.317 5.317 0 0 1-.877.253 3.357 3.357 0 0 1-.743.068 1.548 1.548 0 0 1-.267-.03c.04-.056.098-.123.179-.2a3.36 3.36 0 0 1 .6-.445 5.445 5.445 0 0 1 1.7-.649c.284-.055.537-.075.743-.068.112.004.2.016.267.03Zm-.424 4.54c.645.866.879 2.035.879 2.853a5.575 5.575 0 0 1-6.323 5.526c-1.276-2.256-1.598-4.517-1.203-6.256.406-1.794 1.554-3.011 3.25-3.272 1.79-.276 2.796.344 3.397 1.15Zm-7.44 7.708a5.573 5.573 0 0 1-2.832-4.855c0-.807.249-1.967.942-2.831.544-.678 1.41-1.237 2.83-1.238-.797.784-1.343 1.828-1.61 3.008-.4 1.763-.192 3.842.67 5.916Z" fill="#333333"></path></svg>