<svg xmlns:xlink="http://www.w3.org/1999/xlink" xmlns="http://www.w3.org/2000/svg" viewBox="0 0 24 24" data-testid="svg-icon" class="" height="24" width="24"><path d="M18.3 13.7c-.5-.8-1.3-1.3-2.2-1.6-.3-.1-.6-.2-.9-.2-.9-2.3 0-4.4.9-6.6.1-.3.3-.6.4-.9.1-.3 0-.6-.1-.8-.2-.2-.5-.3-.8-.2-4.6 1.2-7.4 4.1-8.5 8.7-.5.2-1.1.6-1.5 1-.8.8-1.3 2-1.3 3.2s.5 2.3 1.3 3.2c.8.8 2 1.3 3.2 1.3 1.1 0 2.1-.4 2.9-1.1.5.4 1.1.7 1.7.9.4.1.8.2 1.3.2s1-.1 1.5-.2c.9-.3 1.6-.9 2.2-1.6.5-.8.8-1.7.8-2.6-.1-1.1-.4-2-.9-2.7zm-4-8.4c-.8 2-1.5 4.2-.8 6.7h-.2c-.6.2-1.2.5-1.7.9-.8-.7-1.8-1.1-2.9-1.1.9-3.2 2.8-5.3 5.6-6.5zM6.6 18.4c-.6-.6-.9-1.3-.9-2.1s.3-1.5.9-2.1c.6-.6 1.3-.9 2.1-.9s1.5.3 2.1.9.9 1.3.9 2.1-.3 1.5-.9 2.1c-1.1 1.1-3 1.1-4.2 0zM17 18c-.4.5-.9.9-1.5 1.1-.6.2-1.2.2-1.8 0-.4-.1-.8-.3-1.2-.6.4-.7.6-1.4.6-2.2 0-.8-.2-1.5-.6-2.2.3-.3.7-.5 1.2-.6.6-.2 1.2-.2 1.8 0 .6.2 1.1.6 1.5 1.1.4.5.6 1.1.6 1.7 0 .6-.2 1.2-.6 1.7z" fill="#333333"></path></svg>