<svg xmlns:xlink="http://www.w3.org/1999/xlink" xmlns="http://www.w3.org/2000/svg" viewBox="0 0 24 24" data-testid="svg-icon" class="" height="24" width="24"><path d="M20.7 9.2V9c-1.4-3.5-3.9-5.4-7.6-5.8-.3 0-.5 0-.7.1-.2.1-.4.2-.6.4l-8.2 7.2-.1.1s0 .1-.1.1v3.2c0 .4.1.7.3 1s.3.6.6.7c.2.1.3.2.4.3.1.2.1.3.1.5s-.1.3-.2.5c-.1.1-.3.2-.5.3-.3.1-.5.2-.7.4-.2.2-.3.5-.3.7 0 .3.1.5.2.8.1.2.3.4.5.6.2.2.4.3.7.4.2.1.3.1.5.1h.2l13.9-1.8c.4-.1.8-.3 1.1-.6.3-.3.4-.8.4-1.2l.1-7.8c.1.1 0 .1 0 0zm-8-4.4.1-.1h.1c2.8.3 4.8 1.6 6 4L6.4 10.4l6.3-5.6zm6.5 12.1c0 .1 0 .2-.1.2s-.1.1-.2.1L5.1 19.1H5s-.1 0-.1-.1c.4-.1.7-.3.9-.6.3-.4.5-.9.5-1.4 0-.5-.1-1-.3-1.4-.3-.4-.6-.8-1.1-1-.1 0-.1-.1-.1-.1 0-.1-.1-.1-.1-.2v-2.2l14.5-1.9v6.7z" fill="#333333"></path><path d="M11.2 18.1c.6 0 1.1-.2 1.5-.6.4-.4.6-.9.6-1.5s-.2-1.1-.6-1.5c-.8-.8-2.2-.8-2.9 0-.4.4-.6.9-.6 1.5 0 .5.2 1.1.6 1.5.3.4.8.6 1.4.6zm-.4-2.5c.1-.1.3-.2.4-.2.2 0 .3.1.4.2s.2.3.2.4c0 .2-.1.3-.2.4-.2.2-.6.2-.8 0-.1-.1-.2-.3-.2-.4 0-.2.1-.3.2-.4zm5.7-.7c.5 0 1.1-.2 1.5-.6s.6-.9.6-1.5-.2-1.1-.6-1.5c-.8-.8-2.2-.8-2.9 0-.4.4-.6.9-.6 1.5 0 .5.2 1.1.6 1.5.4.4.9.6 1.4.6zm-.4-2.5c.1-.1.3-.2.4-.2.2 0 .3.1.4.2.1.1.2.3.2.4 0 .2-.1.3-.2.4-.2.2-.6.2-.8 0-.1-.1-.1-.2-.1-.4s0-.3.1-.4zm-8.5 1.9c.1.1.3.1.4.1h.2c.2 0 .4-.1.5-.3.2-.2.3-.4.3-.6 0-.2 0-.4-.1-.6-.1-.2-.2-.3-.4-.5-.4-.3-.9-.2-1.3.1-.1.3-.2.6-.2.8 0 .2.1.4.2.6.1.2.2.3.4.4zm.1-1.3c.1-.1.1-.1.2-.1h.3c.1 0 .2.1.2.2.1.1.1.2.1.3 0 .1-.1.2-.1.3-.2.2-.4.2-.6.1l-.2-.2v-.3c-.1-.2 0-.2.1-.3zm7.2 4.2c.1.1.3.1.4.1h.2c.2 0 .4-.1.5-.3s.2-.3.3-.5c0-.2 0-.4-.1-.6-.1-.2-.2-.3-.4-.5-.4-.3-1-.2-1.3.1-.2.2-.3.4-.3.7 0 .2.1.4.2.6.1.2.3.3.5.4zm0-1.3c.1-.1.2-.1.3-.1h.3c.1 0 .2.1.2.2.1.1.1.2.1.3 0 .1-.1.3-.1.3-.2.2-.4.2-.6.1l-.2-.2v-.3c-.1-.1 0-.2 0-.3z" fill="#333333"></path></svg>