<svg xmlns:xlink="http://www.w3.org/1999/xlink" xmlns="http://www.w3.org/2000/svg" viewBox="0 0 24 24" data-testid="svg-icon" class="" height="24" width="24"><path d="M17.2 17.9c-.1-.4-.5-.7-.9-.6-.4.1-.7.5-.6.9l.1.7v.1s0 .1-.1.1l-.1.1H6.2s-.1 0-.1-.1L6 19v-.1l1.3-7.5c.1-.4-.2-.7-.5-.8-.7-.2-1.2-.7-1.6-1.3-.4-.6-.5-1.3-.4-2 .1-.7.5-1.3 1-1.8s1.2-.7 1.9-.7h6.4c.8 0 1.5.3 2.1.9s.9 1.3.9 2.1c0 .4-.1.9-.3 1.3-.2.4-.5.7-.8 1-.3.3-.4.7-.1 1.1s.7.4 1.1.1c.5-.4.9-.9 1.2-1.5.3-.6.4-1.2.4-1.9 0-1.2-.5-2.3-1.3-3.2-.8-.8-2-1.3-3.2-1.3H7.7c-1.1 0-2.1.4-2.9 1.1C4 5 3.5 5.9 3.3 7c-.2 1 0 2.1.6 3 .4.7 1.1 1.3 1.8 1.7l-1.2 6.9v.8c.1.3.2.5.4.7.2.2.4.4.6.5.2.1.5.2.8.2h9.2c.3 0 .5-.1.8-.2.2-.1.4-.3.6-.5.2-.2.3-.4.4-.7.1-.3.1-.5 0-.8l-.1-.7z" fill="#333333"></path><path d="M20.6 19.6 15.8 12l-3.7-5.8c-.2-.4-.7-.5-1-.2-.7.3-1.2 1-1.4 1.8-.2 1.1 0 2.4.7 3.4.9 1.4 2.3 2.2 3.6 2.2.3 0 .6 0 .9-.1l4.5 7.1c.1.2.4.3.6.3.1 0 .3 0 .4-.1.4-.2.5-.7.2-1zm-8.9-9.1c-.5-.7-.7-1.6-.5-2.3 0-.1.1-.3.1-.4L14 12c-.8-.1-1.7-.6-2.3-1.5z" fill="#333333"></path><path d="M9.2 11.4c-.4-.1-.8 0-1 .4-.1.4-.2.8-.1 1.2 0 .4.2.8.4 1.1.2.3.5.6.8.8.1.1.3.2.4.2 0 .1 0 .3.1.4.1.4.3.7.5 1 .2.3.5.5.8.7.3.2.7.3 1 .3h.2c.3 0 .6 0 .9-.1.3-.1.7-.3.9-.6.3-.2.5-.5.6-.9.1-.3.2-.7.2-1 0-.4-.3-.7-.8-.7-.4 0-.7.3-.7.8 0 .2 0 .3-.1.4-.1.1-.2.3-.3.4-.1.1-.2.2-.4.2-.1.1-.3.1-.5.1s-.3-.1-.4-.1c-.1-.1-.3-.2-.3-.3-.1-.1-.2-.3-.2-.4v-.5c0-.2 0-.4-.1-.6-.1-.2-.3-.3-.5-.3s-.3-.1-.5-.2c-.1-.1-.3-.2-.3-.4-.1-.1-.1-.3-.2-.5 0-.2 0-.3.1-.5.1-.3-.1-.7-.5-.9z" fill="#333333"></path></svg>