<svg xmlns:xlink="http://www.w3.org/1999/xlink" xmlns="http://www.w3.org/2000/svg" viewBox="0 0 24 24" data-testid="svg-icon" class="" height="24" width="24"><path d="M20.7 16.4c-.1-.5-.2-.9-.4-1.4 0-.1-.1-.2-.1-.2s0-.1-.1-.1c-.1-.1-.2-.3-.3-.4l-4.9-5V4.7h.9c.4 0 .8-.3.8-.8s-.3-.8-.8-.8H7.4c-.5.1-.8.5-.8.9s.3.8.8.8h.9v4.6l-4.2 5c-.2.3-.4.6-.5.9v.1c-.1.3-.2.7-.3 1-.1.7 0 1.5.4 2.2.3.7.8 1.2 1.5 1.6.6.4 1.3.6 2 .6h9.6c.7 0 1.5-.2 2.1-.6.6-.4 1.1-1 1.5-1.6.2-.7.4-1.5.3-2.2zM9.6 10.1c.1-.1.2-.3.2-.5V4.8h3.6v4.9c0 .2.1.4.2.5l3.6 3.6c-.6-.1-1.3-.2-1.9-.2-1.8 0-3.3.6-4.6 1.1-1.1.4-2.1.8-3.1.8-.7 0-1.4-.1-2.1-.3l4.1-5.1zm9.4 7.8c-.2.4-.5.8-.9 1-.4.2-.8.4-1.3.4H7.2c-.5 0-.9-.1-1.3-.3-.4-.2-.7-.6-.9-1-.2-.4-.3-.9-.2-1.3.8.1 1.8.3 2.7.3 1.4 0 2.5-.5 3.7-.9 1.2-.5 2.5-1 4-1 1.3 0 2.6.3 3.8.8.1.2.2.5.2.7 0 .4 0 .9-.2 1.3z" fill="#333333"></path></svg>