<svg xmlns:xlink="http://www.w3.org/1999/xlink" xmlns="http://www.w3.org/2000/svg" viewBox="0 0 24 24" data-testid="svg-icon" class="" height="24" width="24"><path d="m18.8 8.2-.9-.9c0-.3-.1-.5-.2-.8-.1-.2-.3-.4-.5-.6-1.6-1.2-3.5-1.7-5.4-1.6-1.7.1-3.2.7-4.5 1.7-.6-.6-1-1.2-1.4-2l-.2-.3c-.2-.4-.6-.5-1-.3-.4.1-.5.6-.4.9l.2.4c.5.9 1 1.6 1.7 2.3-1.1 1.3-1.8 3-1.9 4.7-.1 1.9.4 3.9 1.6 5.4.2.2.4.4.6.5.2.1.5.2.8.2l.9.9c1.5 1.5 3.9 1.9 6.2 1.9 2 0 3.9-.4 4.7-.7.2-.1.5-.2.6-.4.2-.2.3-.4.4-.6.6-1.5 1.5-7.9-1.3-10.7zm.3 8c-.7-3-2.3-5.2-3.6-6.5l1.7-.9.1-.1.5.5c1.5 1.5 1.6 4.7 1.3 7zM5.8 11.9c.1-1.4.6-2.7 1.5-3.8.5.4 1 .7 1.6 1l.4.2c.1.1.2.1.3.1.3 0 .5-.2.7-.4.2-.4 0-.8-.3-1l-.4-.3c-.4-.2-.8-.4-1.2-.7 1-.7 2.2-1.2 3.4-1.2h.4c1.4 0 2.8.5 4 1.3l.1.1v.5l-1.6.8c-2.8 1.4-5 3.6-6.4 6.4l-.8 1.6h-.4l-.1-.1c-.9-1.4-1.3-3-1.2-4.5zm3.4 5.9-.5-.5.1-.1.9-1.7c1-2 2.6-3.7 4.4-5 1.5 1.2 3.7 4.1 3.8 8.3-1.9.6-6.7.9-8.7-1z" fill="#333333"></path></svg>