<svg xmlns:xlink="http://www.w3.org/1999/xlink" xmlns="http://www.w3.org/2000/svg" viewBox="0 0 24 24" data-testid="svg-icon" class="" height="24" width="24"><path d="M14.7 10.9c-.3-.3-.8-.3-1.1 0l-2.3 2.3L9 10.9c-.3-.3-.8-.3-1.1 0s-.3.8 0 1.1l2.3 2.3-2.3 2.3c-.3.3-.3.8 0 1.1.1.1.3.2.5.2s.4-.1.5-.2l2.3-2.3 2.3 2.3c.1.1.3.2.5.2s.4-.1.5-.2c.3-.3.3-.8 0-1.1l-2.3-2.3 2.3-2.3c.5-.3.5-.8.2-1.1z" fill="#333333"></path><path d="M18.8 7.3c-.1-.2-.2-.4-.4-.6l-1.2-1.2c-.2-.3-.4-.4-.6-.5-.5-.2-1-.2-1.4 0-.2.1-.4.2-.6.4l-.4.4c-.1-.1-.3-.2-.5-.2h-1v-.5c0-.5-.2-1-.6-1.3-.4-.4-.8-.6-1.3-.6H7.3c-.5 0-1 .2-1.3.6-.4.4-.6.8-.6 1.3v.6c-.2.1-.4.2-.6.4-.4.3-.6.8-.6 1.3v11.4c0 .5.2 1 .6 1.3.4.4.8.6 1.3.6h10.3c.5 0 1-.2 1.3-.6.4-.4.6-.8.6-1.3v-8.6c0-.2-.1-.4-.2-.5l.4-.4c.2-.2.3-.4.4-.6 0-.2.1-.5.1-.7s-.1-.5-.2-.7zM7 4.9c.1-.1.2-.1.3-.1h3.4c.1 0 .2 0 .3.1.1.1.1.2.1.3v.4H6.9v-.5c0-.1 0-.2.1-.2zm9.8 14c0 .1 0 .2-.1.3-.1.1-.2.1-.3.1H6.1c-.1 0-.2 0-.3-.1-.1-.1-.1-.2-.1-.3V7.4c0-.1 0-.2.1-.3.1 0 .2-.1.3-.1h7.1l3.6 3.6v8.3zm-1.6-12 .4-.4.1-.1h.3s.1 0 .1.1l1.2 1.2.1.1v.3s0 .1-.1.1l-.3.5-1.8-1.8z" fill="#333333"></path></svg>