<svg xmlns:xlink="http://www.w3.org/1999/xlink" xmlns="http://www.w3.org/2000/svg" viewBox="0 0 24 24" data-testid="svg-icon" class="" height="24" width="24"><path fill-rule="evenodd" clip-rule="evenodd" d="m13.066 7.517.39-1.95a2.883 2.883 0 0 1 2.828-2.317h2.518a.75.75 0 0 1 0 1.5h-2.518a1.386 1.386 0 0 0-1.357 1.112l-.331 1.655h2.475a1.28 1.28 0 0 1 1.213.867c.057.168.079.345.065.522l-.005.045-1.465 10.169a1.814 1.814 0 0 1-1.807 1.63H8.663a1.817 1.817 0 0 1-1.805-1.626L5.261 8.96c-.003-.02-.006-.04-.007-.058a1.286 1.286 0 0 1 1.28-1.386h6.532zm2.984 6.832a3.419 3.419 0 0 1-2.048-.747c-.187.149-.39.279-.606.387-.034.018-.069.034-.104.05l-.688 3.44a.751.751 0 0 1-1.471-.293l.568-2.84a3.42 3.42 0 0 1-1.966-.744 3.418 3.418 0 0 1-2.109.748l.717 4.555c.002.018.005.036.006.055a.32.32 0 0 0 .315.29h6.408c.079 0 .156-.03.214-.084a.314.314 0 0 0 .102-.206.619.619 0 0 1 .005-.045l.657-4.566zm-1.754-5.332-.563 2.816a.749.749 0 0 1 .868.25 1.92 1.92 0 0 0 1.666.763l.552-3.83h-2.523zm-6.907 3.82a1.913 1.913 0 0 0 1.746-.754.75.75 0 0 1 1.2 0 1.923 1.923 0 0 0 1.533.767c.045 0 .089-.002.133-.005l.765-3.828H6.788l.601 3.82z" fill="#333333"></path></svg>