<svg xmlns:xlink="http://www.w3.org/1999/xlink" xmlns="http://www.w3.org/2000/svg" viewBox="0 0 24 24" data-testid="svg-icon" class="" height="24" width="24"><path d="M17.1 13c-.7-.2-1.5-.3-2.2-.2-.7.1-1.5.3-2.1.8-.9.7-1.8 1.4-2.6 2.2l-.9-.6c-.5-.3-1-.5-1.6-.6-.6-.1-1.2 0-1.7.2s-1 .5-1.5.9-.7.9-.9 1.5c-.2.9-.4 1.8-.3 2.8 0 .4.3.7.7.7h16c.4 0 .8-.3.8-.8 0-1.3 0-5.6-3.7-6.9zM4.8 19.2c0-.6.1-1.1.3-1.6.1-.3.3-.6.6-.9.3-.2.6-.4.9-.5.3-.1.7-.1 1-.1.3 0 .7.2 1 .3.2.2.5.3.7.5-.2.3-.4.6-.7.9-.2.3-.1.8.2 1 .3.2.8.1 1-.2l.9-1.2s.1 0 .1-.1c.1-.1.1-.1.1-.2.8-.9 1.7-1.7 2.7-2.4.4-.3.9-.5 1.5-.5.5-.1 1 0 1.5.2 1.6.5 2.5 2.1 2.6 4.8H4.8z" fill="#333333"></path><path d="M4 8c.2 0 .4-.1.5-.2l1.1-1.1 3.8 3.8-.3.3c-.4.2-.6.7-.6 1.2s.2 1 .6 1.3l1 1c.1.1.3.2.5.2s.4-.1.5-.2c.3-.3.3-.8 0-1.1l-1-1s-.1-.1-.1-.2 0-.2.1-.3l.8-.8.8-.8c.1-.1.4-.1.5 0l1 1 .1.1.3 1c.1.4.6.6.9.5.4-.1.6-.6.5-.9l-.3-1c-.1-.3-.3-.5-.5-.7l-1-1c-.7-.7-1.9-.7-2.7 0l-.3.3-3.5-3.8 1.1-1.1c.2-.3.2-.7-.1-1s-.7-.3-1 0L5.1 5.1 3.5 6.7c-.3.3-.3.7 0 1 .1.2.3.3.5.3z" fill="#333333"></path></svg>