<svg xmlns:xlink="http://www.w3.org/1999/xlink" xmlns="http://www.w3.org/2000/svg" viewBox="0 0 24 24" data-testid="svg-icon" class="" height="24" width="24"><path d="M19.1 15.9c-.1-.4-.6-1-2-1.1-.8 0-1.8.2-2.7.5-.6.2-1.2.5-1.7.9V15l.3.1 1.1.1c.4 0 .7-.2 1.1-.3l.9-.7.5-1 .1-1.1V12h.1c.3-.1.7-.3.9-.6l.6-.9.2-1.1c0-.8-.3-1.5-.8-2l-1-.7v-.1l-.1-1.1-.5-1-.8-.7-1-.4-1.1.1-1 .5-.1.1L12 4l-1-.5-1.1-.1c-.5-.1-.9 0-1.2.2a3 3 0 0 0-.8.8 2 2 0 0 0-.5 1l-.1 1.1v.1c-.3.1-.7.3-1 .6-.5.5-.8 1.2-.8 2s.3 1.5.8 2c.3.3.6.5 1 .6v.1c-.1.4 0 .8.1 1.1l.5 1c.2.3.5.6.9.7.3.2.7.3 1.1.3h.3l.8-.1.3-.1V16l-.4-.2c-.4-.2-.8-.5-1.3-.6L8.1 15l-1.3-.1a5 5 0 0 0-1.2.2c-.5.2-.7.6-.8.8-.1.3-.2.7.1 1.2l.7 1 1.1.8c.4.2.8.5 1.3.6a7.4 7.4 0 0 0 2.5.5h.2l1-.2.3.1.3-.1 1 .2h.2c.8 0 1.7-.2 2.5-.5.9-.4 1.8-.9 2.4-1.4.9-1 .8-1.8.7-2.2zm-8.6-2.2H10l-.5-.2-.4-.3-.2-.5v-.5l.2-.5.1-.1c.1-.2.1-.5 0-.8a.8.8 0 0 0-.7-.4c-.4 0-.7-.1-.9-.4-.5-.1-.6-.4-.6-.8 0-.3.1-.7.4-.9l.8-.4c.3.1.7-.1.8-.4.1-.2.1-.5 0-.8a.8.8 0 0 1-.2-.4v-.5l.2-.5.5-.4.5-.2h.5l.5.2.3.3v.1c.1.2.4.4.7.4.3 0 .5-.2.7-.4l.3-.4.5-.2h.5l.5.2.4.3.1.6v.5l-.2.5v.1c-.1.2-.1.5 0 .8.1.2.4.4.7.4.4 0 .7.1 1 .4.2.2.4.6.4.9l-.1.5-.3.4-.4.3-.4.1a1 1 0 0 0-.8.4c-.1.2-.1.5 0 .8l.2.5v.5l-.2.5c-.1.1-.2.3-.4.3l-.5.2h-.5l-.5-.3-.3-.4-.1-.2-.1-.1-.1-.1h-.6l-.2.1-.1.2-.3.4-.7.2zm.1 4.8-1-.1-1.1-.3-1.1-.5-.8-.6-.3-.5.6-.1H7l.9.1 1.1.3 1.1.5.8.6.3.4v.1l-.6.1zm6.7-1.5c-.4.4-1.1.8-1.9 1.1a6 6 0 0 1-2.1.4l-.5-.1v-.2l.3-.4c.4-.4 1.1-.8 1.9-1.1a6 6 0 0 1 2.1-.4l.6.1-.4.6z" fill="#333333"></path><path d="M13.6 10.9c.4-.4.7-1 .7-1.6a2 2 0 0 0-.7-1.6c-.9-.9-2.4-.9-3.3 0-.4.3-.7.9-.7 1.5s.2 1.2.7 1.6c.4.4 1 .7 1.6.7.6 0 1.2-.2 1.7-.6zm-2.5-1.7.2-.6.6-.2.6.2c.2.2.2.4.2.6l-.2.6c-.3.3-.8.3-1.1 0l-.3-.6z" fill="#333333"></path></svg>