<svg xmlns:xlink="http://www.w3.org/1999/xlink" xmlns="http://www.w3.org/2000/svg" viewBox="0 0 24 24" data-testid="svg-icon" class="" height="24" width="24"><path fill-rule="evenodd" clip-rule="evenodd" d="M11.25 4.89V4a.75.75 0 0 1 1.5 0v.89a7.15 7.15 0 0 1 6.361 6.36h.89a.75.75 0 0 1 0 1.5h-.89a7.15 7.15 0 0 1-6.36 6.361v.89a.75.75 0 0 1-1.5 0v-.89a7.15 7.15 0 0 1-6.362-6.36H4a.75.75 0 0 1 0-1.5h.89a7.15 7.15 0 0 1 6.36-6.362zm6.35 7.86h-1.722a3.941 3.941 0 0 1-1.085 2.043 3.941 3.941 0 0 1-2.042 1.086V17.6a5.652 5.652 0 0 0 4.85-4.85zm-11.2 0a5.652 5.652 0 0 0 4.85 4.85v-1.722a3.942 3.942 0 0 1-2.043-1.085 3.941 3.941 0 0 1-1.085-2.042H6.4zm4.85 1.582V12.75H9.668a2.44 2.44 0 0 0 1.582 1.582zm3.082-1.582H12.75v1.582a2.44 2.44 0 0 0 1.582-1.582zM12.75 6.4v1.722a3.952 3.952 0 0 1 3.128 3.128h1.723a5.652 5.652 0 0 0-4.85-4.85zm-1.5 0a5.646 5.646 0 0 0-4.85 4.85h1.722a3.945 3.945 0 0 1 3.129-3.128V6.4zm1.5 3.268v1.583h1.582a2.44 2.44 0 0 0-1.582-1.583zm-1.5 0a2.44 2.44 0 0 0-1.582 1.583h1.583V9.668z" fill="#333333"></path></svg>