<svg xmlns:xlink="http://www.w3.org/1999/xlink" xmlns="http://www.w3.org/2000/svg" viewBox="0 0 24 24" data-testid="svg-icon" class="" height="34" width="65"><path fill-rule="evenodd" clip-rule="evenodd" d="M3.25 12a8.749 8.749 0 1 0 17.498 0A8.749 8.749 0 0 0 3.25 12zm1.5 0c0-1.922.764-3.767 2.123-5.127a7.254 7.254 0 0 1 10.254 0 7.254 7.254 0 0 1 0 10.255 7.254 7.254 0 0 1-10.254 0A7.254 7.254 0 0 1 4.75 12z" fill="#333333"></path><path d="M8.8 11.25c.148 0 .293.044.417.126a.758.758 0 0 1 .319.77.75.75 0 0 1-1.023.547.758.758 0 0 1-.337-.276.747.747 0 0 1 .094-.947.747.747 0 0 1 .53-.22zm6.4 0c.148 0 .293.044.417.126a.758.758 0 0 1 .319.77.75.75 0 0 1-1.023.547.758.758 0 0 1-.337-.276.747.747 0 0 1 .094-.947.747.747 0 0 1 .53-.22z" fill="#333333"></path><path fill-rule="evenodd" clip-rule="evenodd" d="M6.167 12a2.633 2.633 0 1 0 5.267.001 2.633 2.633 0 0 0-5.267 0zm1 0a1.634 1.634 0 1 1 3.268 0 1.634 1.634 0 0 1-3.268 0zm5.4 0a2.633 2.633 0 1 0 5.266.001 2.633 2.633 0 0 0-5.266 0zm1 0a1.634 1.634 0 1 1 3.268 0 1.634 1.634 0 0 1-3.268 0zM10.4 17.017h3.2a.75.75 0 0 0 0-1.5h-3.2a.75.75 0 0 0 0 1.5zM8.071 6.423a3.268 3.268 0 0 1 2.146-.264.75.75 0 0 1-.32 1.465 1.768 1.768 0 0 0-1.166.146l-.018.008c-.366.17-.662.46-.841.82a.75.75 0 1 1-1.344-.664 3.264 3.264 0 0 1 1.543-1.511zm6.212 1.204a1.877 1.877 0 0 1 2.04.982.75.75 0 1 0 1.335-.683 3.371 3.371 0 0 0-3.674-1.77.75.75 0 0 0 .299 1.47z" fill="#333333"></path></svg>