<svg xmlns:xlink="http://www.w3.org/1999/xlink" xmlns="http://www.w3.org/2000/svg" viewBox="0 0 24 24" data-testid="svg-icon" class="" height="24" width="24"><path d="M8.5 12c.3-.1.5-.3.8-.5.2-.2.4-.5.5-.8.1-.3.2-.6.2-.9s-.1-.5-.2-.8c-.1-.3-.3-.6-.5-.8-.3-.2-.5-.4-.8-.5-.6-.2-1.2-.2-1.8 0-.3.1-.5.3-.8.5-.2.2-.4.5-.5.8-.1.3-.2.6-.2.9s.1.6.2.9c.1.3.3.5.5.8.2.2.5.4.8.5.3.1.6.2.9.2.3-.1.6-.1.9-.3zm-1.2-1.3c-.1 0-.2-.1-.3-.2-.1-.1-.1-.2-.2-.3 0-.1-.1-.2-.1-.3s0-.2.1-.3c0-.1.1-.2.2-.3s.2-.1.3-.2c.1-.1.2-.1.3-.1.1 0 .2 0 .3.1.1 0 .2.1.3.2.1.1.1.2.2.3s.1.2.1.3 0 .2-.1.3-.1.2-.2.3c-.1.1-.2.1-.3.2h-.6zm5.1 1.5c.6 0 1.2-.3 1.7-.7.4-.4.7-1 .7-1.7s-.3-1.2-.7-1.7c-.9-.9-2.4-.9-3.3 0-.4.4-.7 1-.7 1.7s.3 1.2.7 1.7c.4.5 1 .7 1.6.7zm-.6-2.9c.2-.2.4-.3.6-.3.2 0 .4.1.6.2s.2.4.2.6-.1.4-.2.6c-.3.3-.9.3-1.2 0-.2-.2-.2-.4-.2-.6s0-.4.2-.5zm-1.1 7.4c-.4.4-.7 1-.7 1.7 0 .6.3 1.2.7 1.7.4.4 1 .7 1.7.7.6 0 1.2-.3 1.7-.7s.7-1 .7-1.7c0-.6-.3-1.2-.7-1.7-.9-.8-2.5-.8-3.4 0zM13 19c-.3.3-.9.3-1.2 0-.2-.2-.2-.4-.2-.6s.1-.4.2-.6c.2-.2.4-.2.6-.2.2 0 .4.1.6.2s.2.4.2.6 0 .4-.2.6z" fill="#333333"></path><path d="M11.4 15.8c.2-.2.4-.5.5-.8.1-.3.2-.6.2-.9 0-.3-.1-.6-.2-.9-.1-.3-.3-.5-.5-.8-.2-.2-.5-.4-.8-.5-.6-.2-1.2-.2-1.8 0-.3.1-.5.3-.8.5-.2.2-.4.5-.5.8-.1.3-.2.6-.2.9 0 .3.1.6.2.9.1.3.3.5.5.8.2.2.5.4.8.5.3.1.6.2.9.2s.6-.1.9-.2c.3-.1.6-.3.8-.5zm-.9-1.3c0 .1-.1.2-.2.3-.1.1-.2.1-.3.2-.2.1-.4.1-.7 0-.1 0-.2-.1-.3-.2-.1-.1-.1-.2-.2-.3 0-.1-.1-.2-.1-.3 0-.1 0-.2.1-.3 0-.1.1-.2.2-.3.1-.1.2-.1.3-.2s.2-.1.3-.1.2 0 .3.1c.1 0 .2.1.3.2.1.1.1.2.2.3 0 .1.1.2.1.3.1 0 .1.2 0 .3zm2.9-2c-.4.4-.7 1-.7 1.7 0 .6.2 1.2.7 1.7.4.4 1 .7 1.7.7.6 0 1.2-.3 1.7-.7s.7-1 .7-1.7c0-.6-.3-1.2-.7-1.7-1-.9-2.5-.9-3.4 0zm2.3 2.2c-.3.3-.9.3-1.2 0-.2-.2-.2-.4-.2-.6 0-.2.1-.4.2-.6s.4-.2.6-.2c.2 0 .4.1.6.2.2.2.2.4.2.6s-.1.5-.2.6z" fill="#333333"></path><path d="M19.4 9c-.1-.3-.3-.5-.5-.8-.2-.2-.5-.4-.8-.5-.6-.2-1.2-.2-1.8 0-.3.1-.5.3-.8.5-.2.2-.4.5-.5.8-.1.3-.2.6-.2.9s.1.6.2.9c.1.3.3.5.5.8.2.2.5.4.8.5.3.1.6.2.9.2s.6-.1.9-.2c.3-.1.5-.3.8-.5.2-.2.4-.5.5-.8.1-.3.2-.6.2-.9s-.1-.6-.2-.9zM18 10.2c0 .1-.1.2-.2.3-.1.1-.2.1-.3.2-.2.1-.4.1-.7 0-.1 0-.2-.1-.3-.2-.1-.1-.1-.2-.2-.3 0-.1-.1-.2-.1-.3s0-.2.1-.3c0-.1.1-.2.2-.3.1-.1.2-.1.3-.2.2-.1.3-.1.4-.1s.2 0 .3.1c.1 0 .2.1.3.2.1.1.1.2.2.3v.6zm-7.2-5.4h.9c-.2.5-.3 1-.2 1.5.1.4.4.6.7.6h.1c.5-.1.8-.5.7-.9 0-.3 0-.5.1-.8.1-.2.3-.4.5-.5H15c.4 0 .8-.3.8-.8s-.3-.8-.8-.8h-4.3c-.3.1-.7.5-.7.9s.4.8.8.8z" fill="#333333"></path></svg>