<svg xmlns:xlink="http://www.w3.org/1999/xlink" xmlns="http://www.w3.org/2000/svg" viewBox="0 0 24 24" data-testid="svg-icon" class="" height="24" width="24"><path d="M18.5 4c-.2-.2-.4-.4-.6-.5-.2-.1-.5-.2-.7-.2-.3 0-.5 0-.8.1-.2.1-.5.2-.7.4L3.8 15.7c-.2.2-.3.4-.4.7-.1.2-.1.5-.1.8 0 .3.1.5.2.7.1.2.3.4.5.6 1.9 1.5 4.2 2.3 6.5 2.3h.5c2.5-.1 5-1.2 6.8-3 1.8-1.8 2.8-4.2 3-6.8.1-2.6-.8-5.1-2.3-7zM9.3 17c-1.2-.2-2.3-.7-3.3-1.4l3.2-3.2.1 4.6c-.1 0 0 0 0 0zm1.5 0v-5.2l3.7 3.7s.1.1.2.1c-1.1.9-2.5 1.4-3.9 1.5-.1 0 0-.1 0-.1zm4.8-2.4c0-.1-.1-.1-.1-.1l-3.7-3.7H17c0 1.4-.5 2.7-1.4 3.8zm-3.2-5.4 3.1-3.1c.7.9 1.2 2 1.4 3.1h-4.5zm6.8 1.7c-.1 2.2-1 4.2-2.5 5.8-1.6 1.5-3.6 2.4-5.8 2.5-2.2.1-4.3-.6-6-2l-.1-.1v-.2s0-.1.1-.1l.1-.2c1.5 1.3 3.3 2 5.3 2h.1c2.2 0 4.2-.8 5.8-2.4 1.5-1.6 2.4-3.7 2.4-5.9 0-2-.7-3.8-2-5.3l.2-.2.1-.1h.2l.1.1c1.5 1.8 2.1 3.9 2 6.1z" fill="#333333"></path></svg>