<svg xmlns:xlink="http://www.w3.org/1999/xlink" xmlns="http://www.w3.org/2000/svg" viewBox="0 0 24 24" data-testid="svg-icon" class="" height="24" width="24"><path fill-rule="evenodd" clip-rule="evenodd" d="M13.946 3.471A8.626 8.626 0 0 0 12 3.251C7.2 3.25 3.25 7.2 3.25 12S7.2 20.75 12 20.75s8.75-3.95 8.75-8.75a8.63 8.63 0 0 0-.675-3.353.75.75 0 1 0-1.383.58A7.15 7.15 0 0 1 19.25 12c0 3.978-3.272 7.25-7.25 7.25S4.75 15.977 4.75 12c0-3.979 3.272-7.25 7.25-7.25a7.14 7.14 0 0 1 1.61.182.75.75 0 0 0 .337-1.462z" fill="#333333"></path><path fill-rule="evenodd" clip-rule="evenodd" d="M7.108 11.847a2.034 2.034 0 0 0 1.692.908c.68 0 1.316-.343 1.692-.909a.75.75 0 1 0-1.25-.829.53.53 0 0 1-.884 0 .75.75 0 1 0-1.25.83zm6.4 0a2.034 2.034 0 0 0 1.692.908c.68 0 1.316-.343 1.692-.909a.75.75 0 0 0-1.25-.829.53.53 0 0 1-.884 0 .75.75 0 1 0-1.25.83zm3.366-5.69 3-3.374a.75.75 0 1 1 1.121.996l-5 5.626-.457-2.279-1.494 2.091a.75.75 0 1 1-1.22-.872l3.506-4.909.544 2.721zM10.4 17.017h3.2a.75.75 0 0 0 0-1.5h-3.2a.75.75 0 0 0 0 1.5z" fill="#333333"></path></svg>