<svg xmlns:xlink="http://www.w3.org/1999/xlink" xmlns="http://www.w3.org/2000/svg" viewBox="0 0 48 40" data-testid="svg-icon" class="" height="24" width="24"><path opacity="0.2" d="M25 19.5c0-.3-4-1-7.9-.6a17.3 17.3 0 0 0-1.5.2 29.7 29.7 0 0 0 8.5-8 28 28 0 0 0-8 4.4 23.1 23.1 0 0 0-2.4 2 31.9 31.9 0 0 0 1.7-3.8A36.9 36.9 0 0 0 18 3.3c-.2-.1-3.2 4.6-5 9.5a32.4 32.4 0 0 0-1.2 4 22.8 22.8 0 0 0-.4-3C10.3 9.3 8.3 5 8 5a27.7 27.7 0 0 0 1.2 11.6l-1-1.2c-2.7-2.7-6.2-4.9-6.4-4.7a21.1 21.1 0 0 0 6.5 8.4 9.5 9.5 0 0 0-1-.2c-2.7-.2-5.6.6-5.7 1 0 .2 2.8 1.5 5.4 1.7a7.4 7.4 0 0 0 3.7-.5l-2.3 6 .8.4 2.3-6a7.4 7.4 0 0 0 2.4 2.6c2.1 1.6 5 2.5 5.2 2.2.1-.2-1.5-2.7-3.6-4.3a8.9 8.9 0 0 0-.9-.6h2.7c3.8-.3 7.7-1.8 7.7-2zm22.3 3c-.3-.2-3 1-5.5 3 .3-4-1-8.3-1.4-8.4-.4 0-2.6 3-3.6 6.8-2.1-4.4-5.8-8-6.2-7.8-.5.2-.4 5.3 1.3 9.9-3.4-1.8-7.2-2.4-7.4-2-.2.3 2 4 5.1 6.7-3.2.4-6 1.6-6 2 0 .3 4.1 2.4 8 2.6h.6c-1.4 1.7-2 3.8-1.8 4 .1.3 3.5 0 5.6-1.8a5.1 5.1 0 0 0 1.9-3l2.4 5.5.8-.4-2.3-5.5a5.1 5.1 0 0 0 3.4.8c2.7-.4 5.3-2.5 5.3-2.9 0-.3-2-1.2-4.2-1.4l.4-.4c2.6-3 4-7.4 3.6-7.7z" fill="#017C6B"></path><path d="M17.6 25.8c-.3 0-.9-.1-2-.9a14.8 14.8 0 0 1-3-2.6 8.1 8.1 0 0 1-1.8-3.2 8.1 8.1 0 0 1-3.5 1.3h-4c-2.1-.4-2.2-.8-2.2-1 0-.2 0-.6 1.9-1.4a14.8 14.8 0 0 1 3.8-1.2h.6a17.6 17.6 0 0 1-1.8-1.5A28.5 28.5 0 0 1 2 11.2C.2 8.8.5 8.6.7 8.4c.2-.2.4-.5 2.9 1A28.8 28.8 0 0 1 8 12.7l.3.3c0-.5-.2-1-.3-1.4a38.3 38.3 0 0 1-.8-6.2c0-3.4.2-3.4.5-3.5.3 0 .6-.1 1.9 3a39.2 39.2 0 0 1 1.9 6l.2 1 .6-2a51.4 51.4 0 0 1 3.2-6.7c1.8-3.4 2-3.3 2.4-3.2.3.2.6.3-.2 4a53.1 53.1 0 0 1-2 7.1l-.8 2 .7-.7A38.5 38.5 0 0 1 21 9.1c3-1.5 3.2-1.2 3.4-1 .2.3.4.5-2 3a38.7 38.7 0 0 1-4.7 4.2l-1 .8h.4c1.8 0 3.6.1 5.5.4 2.8.5 2.8.9 2.8 1.2 0 1-5.8 1.9-8.2 2l-2.3-.1.4.4a15 15 0 0 1 2 3.3c1 2 .7 2.3.6 2.4a.4.4 0 0 1-.3.1zm-6.5-8a.4.4 0 0 1 .2 0 .4.4 0 0 1 .3.4c0 .3.1 1.8 1.6 3.5a14.1 14.1 0 0 0 3.8 3 14 14 0 0 0-2.4-4.1 8.6 8.6 0 0 0-1.4-1.4.4.4 0 0 1 0-.7.4.4 0 0 1 .3 0 16 16 0 0 0 3.6.2 27.9 27.9 0 0 0 6.7-1 27.7 27.7 0 0 0-6.7-.7l-2.3.1a.4.4 0 0 1-.4-.2.4.4 0 0 1 .2-.6 22.8 22.8 0 0 0 2.6-1.7A37.5 37.5 0 0 0 23 9.2a37 37 0 0 0-6.7 4 22.8 22.8 0 0 0-2.4 2 .4.4 0 0 1-.7-.6 30.8 30.8 0 0 0 1.7-3.8 49.4 49.4 0 0 0 2.4-9 51.3 51.3 0 0 0-4 8.3 31.7 31.7 0 0 0-1.3 4.1.5.5 0 0 1-.4.4.4.4 0 0 1-.4-.5 23.3 23.3 0 0 0-.5-3 37 37 0 0 0-2.5-7.4 37.2 37.2 0 0 0 .8 7.8l.8 3a.4.4 0 0 1-.7.5 16.4 16.4 0 0 0-1.6-1.7 27.7 27.7 0 0 0-5.6-3.8 27.6 27.6 0 0 0 4.4 5.2 16.2 16.2 0 0 0 3 2.1.4.4 0 0 1 .1.5.4.4 0 0 1-.4.4 8 8 0 0 0-2 0 14 14 0 0 0-4.5 1.5c1.6.4 3.2.5 4.8.3 2.3-.3 3.4-1.3 3.6-1.6a.5.5 0 0 1 .3-.2zm18 21a1.2 1.2 0 0 1-.9-.3c-.4-.5.4-2.5 1.3-3.9-3.6-.2-7.4-2-8-2.7a.6.6 0 0 1-.2-.5c0-.8 3-1.7 5.5-2.2-2.5-2.3-5.1-6-4.5-6.8.4-.6 3.9 0 7 1.5-1.1-4-1.6-9-.7-9.5 1-.4 4.4 3.5 6.4 7 1.1-3.2 3-6.1 3.8-6 1 0 1.8 4.6 1.8 8 2-1.5 4.7-3 5.4-2.5a.6.6 0 0 1 .2.5c0 1-1.3 4.8-3.7 7.7 1.7.3 3.7 1 3.8 1.7 0 1.2-3.8 3.1-5.7 3.4a5.6 5.6 0 0 1-4-1 5.5 5.5 0 0 1-2 3.5c-1.2 1-4 2-5.5 2zm-.1-1a9.3 9.3 0 0 0 5-1.7 4.3 4.3 0 0 0 1.8-3.8.4.4 0 0 1 .2-.5.4.4 0 0 1 .6.2 4.3 4.3 0 0 0 4 1.3 9.2 9.2 0 0 0 4.7-2.4 9.5 9.5 0 0 0-3.7-1 .4.4 0 0 1-.2-.8l.3-.4a17.3 17.3 0 0 0 3.6-7 16.7 16.7 0 0 0-4.9 3 .4.4 0 0 1-.5 0 .5.5 0 0 1-.2-.4 19.5 19.5 0 0 0-1-7.9 18.8 18.8 0 0 0-3.2 6.3.4.4 0 0 1-.4.3.4.4 0 0 1-.4-.2 24.3 24.3 0 0 0-5.6-7.4 24.1 24.1 0 0 0 1.4 9.2.4.4 0 0 1-.6.5 18.8 18.8 0 0 0-6.8-2 19.5 19.5 0 0 0 5 6 .4.4 0 0 1 .1.5.4.4 0 0 1-.3.4 16.8 16.8 0 0 0-5.5 1.5 17.4 17.4 0 0 0 7.5 2.2h.5a.5.5 0 0 1 .4.3.4.4 0 0 1 0 .5 9.5 9.5 0 0 0-1.8 3.4z" fill="#004739"></path></svg>