<svg xmlns:xlink="http://www.w3.org/1999/xlink" xmlns="http://www.w3.org/2000/svg" viewBox="0 0 42 40" data-testid="svg-icon" class="" height="24" width="24"><path d="M12 33.1a16 16 0 0 1-2.6-.2c-.5 0-3-.5-3.3-1.3-.3-.8 1.8-3 4.1-4.5C5.4 24.8 1.3 20.3 1 19a.7.7 0 0 1 0-.6c.4-1 5-.6 8.7.4C7.6 14.4 6 7.7 7.2 7c1-.6 5.5 2.7 8.6 6.2C16.3 7.8 18.6 0 20 0s3.7 7.8 4.3 13.2C27.5 9.7 32 6.4 33 7c1.2.6-.4 7.4-2.4 11.7 3.6-.9 8.2-1.2 8.7-.3a.7.7 0 0 1 0 .6c-.4 1.3-4.5 5.8-9.4 8.1 2.3 1.5 4.4 3.7 4.2 4.5-.3.8-2.8 1.2-3.4 1.3a14 14 0 0 1-5.8-.2A7.8 7.8 0 0 1 20 29a7.8 7.8 0 0 1-4.8 3.7 12 12 0 0 1-3.4.4zm-5-1.8a13 13 0 0 0 8 .5c3.3-1 4.5-3.4 4.6-4.1a.5.5 0 0 1 1 0c0 .7 1.3 3.2 4.5 4 3.2 1 7.2 0 8-.4a13 13 0 0 0-4.4-3.8.5.5 0 0 1 0-.9l.7-.3c4.5-2 8.3-6.3 9-7.5a23 23 0 0 0-8.5 1 .5.5 0 0 1-.6-.3.5.5 0 0 1 0-.3A27.1 27.1 0 0 0 32.4 8c-1 .3-5 3-8 6.7a.5.5 0 0 1-.9-.2A33.7 33.7 0 0 0 20.1 1a34 34 0 0 0-3.5 13.3.5.5 0 0 1-.8.2c-3.1-3.8-7-6.4-8-6.7-.2 1.2.6 6.5 3 11.3a.5.5 0 0 1-.5.7 23.1 23.1 0 0 0-8.5-1c.6 1.2 4.5 5.4 9 7.5l.5.3a.5.5 0 0 1 .3.4.4.4 0 0 1-.2.4A13 13 0 0 0 7 31.3z" fill="#004739"></path><path opacity="0.2" d="M41.2 20.8c-.3-.5-4.7-.5-9 .8C34.8 16.4 35.5 10 35 9.7c-.6-.2-5.2 2.6-8.7 6.9-.3-7-3.1-13.7-3.8-13.7-.7 0-3.5 6.8-3.9 13.7-3.5-4.3-8.1-7.2-8.6-6.9-.5.4.2 6.7 3 12-4.5-1.4-8.9-1.4-9.1-.9-.3.6 4 5.7 9.1 8.1l.7.3c-2.7 1.5-4.8 3.9-4.6 4.3.1.6 4.8 2 8.5.8a7.4 7.4 0 0 0 4.2-3V40h1.4v-8.6a7.4 7.4 0 0 0 4.2 2.9c3.7 1 8.3-.2 8.5-.8.1-.4-1.9-2.8-4.7-4.3.3 0 .5-.2.7-.3 5.2-2.5 9.5-7.5 9.2-8.1z" fill="#017C6B"></path></svg>