<svg xmlns:xlink="http://www.w3.org/1999/xlink" xmlns="http://www.w3.org/2000/svg" viewBox="0 0 24 24" data-testid="svg-icon" class="" height="24" width="24"><path d="m20.5 19.5-2.1-2.1c-.3-.3-.8-.3-1.1 0s-.3.8 0 1.1l2.1 2.1c.1.1.3.2.5.2s.4-.1.5-.2c.4-.4.4-.8.1-1.1zm-4.3-2.8c-.2-.3-.4-.6-.7-.9-.3-.2-.6-.4-1-.5-.4-.1-.7-.1-1 0-1.3.1-4.5 1.3-4.3 3.1.2 1.7 3 2.2 4.5 2.2h.4c.4 0 .7-.1 1-.2.3-.2.6-.4.9-.7.2-.3.4-.6.5-1 .1-.3.1-.7 0-1 0-.3-.1-.7-.3-1zM15 18.4c0 .1-.1.3-.2.4s-.2.2-.4.3c-.2.1-.3.1-.5.1-1.3.1-3.1-.5-3.2-.9.1-.4 1.7-1.4 3.1-1.5h.5c.1 0 .3.1.4.2.1.1.2.2.3.4.1.1.1.3.1.4v.1c-.1.2-.1.3-.1.5zm-3.9-3.5c.2-.3.4-.6.5-1 .1-.3.1-.7 0-1 0-.3-.1-.7-.2-1-.2-.3-.4-.6-.7-.9-.3-.2-.6-.4-1-.5-.4-.1-.7-.1-1 0-.8.1-1.8.4-2.7.9-1.5.8-1.7 1.7-1.7 2.2.2 1.6 2.9 2.2 4.5 2.2h.4c.4 0 .7-.1 1-.2.3-.2.6-.4.9-.7zm-1-1.4c0 .1-.1.3-.2.4-.1.1-.2.2-.4.3-.2.1-.3.1-.5.1-1.3.1-3.1-.5-3.2-.9.1-.4 1.7-1.4 3.1-1.5h.5c.1 0 .3.1.4.2.1.1.2.2.3.4.1.1.1.3.1.4v.1c0 .2 0 .4-.1.5zm8 3c.2 0 .4 0 .6-.1.4-.1.7-.3 1-.5.3-.2.5-.5.7-.9.2-.3.2-.7.2-1 .1-1.2-.3-3.2-1.1-4.2-.4-.5-.9-.6-1.2-.7-1.9-.2-3 3.1-3.1 4.3-.1.4-.1.7 0 1.1.1.4.3.7.5 1 .2.3.5.5.9.7.3.1.7.2 1 .2.3.1.4.1.5.1zM17 14.6c-.1-.1-.2-.3-.2-.4v-.5c.1-1.3 1.1-2.9 1.5-3 .4.1 1 2 .9 3.2v.1c0 .2 0 .3-.1.4-.1.1-.2.3-.3.4-.1.1-.3.2-.4.2h-.5c-.2 0-.4 0-.6-.1l-.3-.3zm-6-3.9c.2.3.5.5.9.7.3.1.7.2 1 .2h.4c.2 0 .4 0 .6-.1.4-.1.7-.3 1-.5.3-.2.5-.5.7-.9.2-.3.2-.7.2-1 .1-.8-.1-1.9-.4-2.8-.5-1.6-1.3-2-1.9-2.1-.5.1-1.3.3-2.1 1.8-.5.8-.8 1.9-.9 2.6-.1.4-.1.7 0 1.1.1.4.3.7.5 1zm1-1.9c.1-1.3 1.1-2.9 1.5-3 .4.1 1 2 .9 3.2v.1c0 .1 0 .3-.1.4-.1.1-.2.3-.3.4-.1.1-.3.2-.4.2h-.4c-.2 0-.4 0-.6-.1-.1-.1-.3-.2-.4-.3-.1-.1-.2-.2-.2-.4-.1-.1-.1-.3 0-.5zm-6.1.7c.3.2.7.2 1.1.2s.7-.1 1.1-.2c.3-.1.6-.4.8-.6.3-.2.5-.5.6-.8.2-.4.2-.7.2-1.1 0-.4-.1-.7-.2-1.1-.1-.3-.4-.6-.6-.8-1-1-3.9-2.6-5.1-1.3-.3.1-.5.5-.5 1.2 0 1.4 1.1 3.2 1.8 3.9.2.2.5.4.8.6zM4.8 4.8H5c.6 0 2.1.6 2.9 1.4H8c0 .1.1.2.1.3.1.2.1.3.1.5s0 .3-.1.4c0 .2-.1.3-.2.4l-.1.1c-.1.1-.2.2-.4.2-.3.1-.6.1-.9 0-.1 0-.2-.1-.4-.3-.9-.9-1.5-2.7-1.3-3z" fill="#333333"></path></svg>