<svg xmlns:xlink="http://www.w3.org/1999/xlink" xmlns="http://www.w3.org/2000/svg" viewBox="0 0 24 24" data-testid="svg-icon" class="" height="24" width="24"><path d="M10.4 5.2s0 .1 0 0c-.9 0-1.9.2-2.7.5-.9.5-1.7 1-2.4 1.6-.6.7-1.1 1.5-1.5 2.4-.4.9-.5 1.8-.5 2.7 0 .9.2 1.9.5 2.7.4.9.9 1.7 1.5 2.3.7.7 1.5 1.2 2.4 1.6.9.4 1.8.5 2.7.5 6.2 0 10.4-2.9 10.4-7.1 0-4.3-4.2-7.2-10.4-7.2zm-4 11.2c-.5-.5-.9-1.1-1.2-1.8-.3-.7-.4-1.4-.4-2.2s.1-1.5.4-2.2c.3-.7.7-1.3 1.2-1.8s1.1-.9 1.8-1.2c.7-.3 1.4-.4 2.2-.4.7 0 1.5.1 2.2.4.7.3 1.3.7 1.8 1.2s.9 1.1 1.2 1.8c.3.7.4 1.4.4 2.2s-.1 1.5-.4 2.2c-.3.7-.7 1.3-1.2 1.8s-1.1.9-1.8 1.2c-1.4.6-2.9.6-4.3 0-.8-.3-1.4-.7-1.9-1.2zm9.5.6c.5-.6.8-1.2 1.1-1.9.4-.9.5-1.8.5-2.7s-.2-1.9-.5-2.7c-.3-.7-.7-1.3-1.1-1.9 2.1 1 3.4 2.6 3.4 4.6-.1 2-1.3 3.6-3.4 4.6z" fill="#333333"></path><path d="M10.4 11.5c.4 0 .8-.3.8-.8v-1c0-.4-.3-.8-.8-.8s-.8.4-.8.8v1.1c0 .4.4.7.8.7zm.7 3.6V14c0-.4-.3-.8-.8-.8s-.7.4-.7.8v1.1c0 .4.3.8.8.8s.7-.4.7-.8zm-3.4-3.4.9.5c.1.1.2.1.4.1.3 0 .5-.1.6-.4.2-.4.1-.8-.3-1l-.9-.5c-.4-.2-.8-.1-1 .3-.2.4 0 .8.3 1zm5.4 1.4-.9-.5c-.4-.2-.8-.1-1 .3-.2.4-.1.8.3 1l.9.5c.1.1.2.1.4.1.3 0 .5-.1.7-.4.1-.3-.1-.8-.4-1z" fill="#333333"></path><path d="M9.7 12.8c-.2-.4-.7-.5-1-.3l-.9.5c-.4.2-.5.7-.3 1 .1.2.4.4.6.4.1 0 .3 0 .4-.1l.9-.5c.3-.2.5-.6.3-1zm1.4-.8c.1.2.4.4.6.4.1 0 .3 0 .4-.1l.9-.5c.4-.2.5-.7.3-1-.2-.4-.7-.5-1-.3l-.9.5c-.3.2-.5.6-.3 1z" fill="#333333"></path></svg>