<svg xmlns:xlink="http://www.w3.org/1999/xlink" xmlns="http://www.w3.org/2000/svg" viewBox="0 0 24 24" data-testid="svg-icon" class="" height="24" width="24"><path fill="none" d="M-20.6 0h24v24h-24z"></path><path d="M11.8 4.1c.2-.2.5-.1.7.1.9 1 1.5 2.1 1.9 3.1.5 1.4.7 2.6.7 3.5 1.5.3 2.8 1.6 2.8 3.3 0 .4-.1.8-.2 1.1-.2.6-.9 2.1-2 3.6-.4.5-.9.9-1.4 1.1-.5.2-1 .1-1.5-.1-.4-.2-.8-.5-1-.8-.2-.3-.4-.8-.3-1.2-.2.3-.3.5-.5.8-.5.6-1 1.1-1.6 1.3-.6.2-1.2.1-1.6-.1-.5-.2-.8-.5-1.1-.9-.2-.4-.4-.9-.3-1.3.1-.4.2-.9.2-1.4 0-.5 0-.8-.1-1.1-.3-.6-.5-1.3-.5-2 0-.6.1-1.2.3-1.7.1-.4.6-.6 1-.4.4.1.6.6.4 1-.1.3-.2.7-.2 1.1 0 .5.1 1 .4 1.4v.1c.2.5.2 1.2.2 1.7 0 .6-.1 1.1-.2 1.6 0 0 0 .1.1.2.1.2.3.3.4.4.2.1.3.1.5 0s.5-.3.8-.7c1.2-1.7 1.9-3.4 2.1-4 .1-.3.1-.5.1-.8 0-.8-.4-1.5-1.1-2-.1 0-.1-.1-.2-.2-.2 0-.3.1-.5.1-.1.1-.5.1-.9.1s-.7 0-1.1-.1c-.3-.1-.6-.2-.9-.4-.3-.2-.5-.5-.6-.9-.1-.4.1-.8.2-1 .2-.3.5-.5.8-.7.3-.2.6-.3 1-.5.4-.1.7-.2 1.1-.3.4 0 .8-.1 1.2-.1.4 0 .7 0 1.1.1.3.1.7.2.9.4l.3.3c.1-.1.1-.2.2-.3-.4-.9-.9-1.8-1.7-2.6-.2-.3-.1-.6.1-.8zm.6 6.1c.2.2.5.5.7.8.3-.2.7-.3 1-.3 0-.6-.1-1.3-.3-2.1-.2.3-.4.5-.6.8v.1l-.3.3c-.1.1-.3.3-.5.4.1 0 .1 0 0 0zm-.5-1.5c-.1 0-.1-.1-.3-.1-.2 0-.5-.1-.7-.1-.3 0-.6 0-.9.1-.4.1-.7.2-.9.3-.3.1-.5.2-.7.3-.1 0-.2.1-.2.1.1 0 .1.1.3.1.2 0 .5.1.7.1.3 0 .6 0 .9-.1.3-.1.6-.1.9-.2.3-.1.5-.2.7-.3.1-.1.1-.2.2-.2zm1.7 4.3v-.5c.2-.1.5-.2.8-.2 1.1 0 2 .9 2 1.9 0 .2 0 .4-.1.6-.2.5-.8 1.8-1.8 3.2-.3.4-.5.5-.7.6h-.4l-.3-.3c0-.1-.1-.1-.1-.1.1-.3.2-.8.2-1.3s0-1-.2-1.5c0 0 0-.1-.1-.1.2-.4.3-.7.4-.9.2-.6.3-1 .3-1.4z" fill-rule="evenodd" clip-rule="evenodd" fill="#333333"></path></svg>