<svg xmlns:xlink="http://www.w3.org/1999/xlink" xmlns="http://www.w3.org/2000/svg" viewBox="0 0 24 24" data-testid="svg-icon" class="" height="24" width="24"><path d="M20.6 8.1c0-.2-.1-.3-.2-.5-.1-.1-.2-.2-.4-.3-.2-.1-.3-.1-.5-.1H19c-3.1 0-9.5.1-9.5 5.8 0 .6.1 1.1.3 1.6l-.3.4c0-.1.1-.3.1-.4.3-3-3.1-3.4-4.5-3.5h-.6c-.1 0-.3.1-.4.2-.1.1-.2.2-.2.4-.4 1.3-.2 2.6.5 3.6.6.9 1.6 1.5 2.6 1.6h.2c.5 0 1-.2 1.4-.4l-.1.1c-.3.3-.2.8.1 1.1.1.1.3.2.5.2s.4-.1.6-.3l1.1-1.5.1.1c.8.8 1.9 1.3 3.1 1.3 1.8 0 3.8-1 5.2-2.6 1.3-1.8 1.8-4.2 1.4-6.8zM7 15.3c-.5-.1-1.1-.4-1.5-1-.3-.4-.5-1-.4-1.8 1.5.2 2.5.5 2.8 1.2-.2-.1-.5-.2-.7-.3-.1-.1-.3-.1-.4-.1-.4-.2-.8 0-1 .4-.2.4 0 .8.4 1 .1.1.3.1.4.2.3.1.6.2.8.4H7zm10.8-1.4c-1.1 1.2-2.6 2-4 2-.7 0-1.5-.3-2-.8-.1-.1-.1-.2-.2-.3l.1-.1c1.1-.9 2.4-1.5 3.8-1.9.4-.1.6-.5.5-.9-.1-.4-.5-.6-.9-.5-1.5.4-2.8 1.1-4.1 2v-.3c0-3.9 4-4.2 8-4.3h.2c.3 2.5-.6 4.1-1.4 5.1z" fill="#333333"></path></svg>