<svg xmlns:xlink="http://www.w3.org/1999/xlink" xmlns="http://www.w3.org/2000/svg" viewBox="0 0 24 24" data-testid="svg-icon" class="" height="24" width="24"><path d="M20.7 7.9c-.1-.2-.2-.4-.3-.5l-3.8-3.8c-.1-.1-.3-.2-.5-.3-.2-.1-.4-.1-.6-.1-.2 0-.4.1-.5.2-.2.1-.3.3-.4.4-.6 1-.9 2.2-.9 3.3-.6-.2-1.1-.3-1.7-.3-1.4 0-2.7.5-3.7 1.5-.1.1-.2.3-.4.4-.1.1-.1.2-.2.3-.5.8-.9 1.7-.9 2.6v.4c0 .6.1 1.2.3 1.7-1.1 0-2.3.3-3.2.8-.2.1-.3.2-.4.4-.1.2-.2.4-.2.5 0 .2 0 .4.1.6.1.2.2.4.3.5l3.8 3.8c.1.1.3.2.5.3.1 0 .3.1.4.1h.2c.2 0 .4-.1.5-.2.2-.1.3-.3.4-.4.6-.9.9-2.1.8-3.2.6.2 1.1.3 1.7.3 1.4 0 2.7-.5 3.7-1.5s1.5-2.3 1.5-3.7v-.4c0-.4-.1-.9-.3-1.3h.3c1 0 2.1-.3 2.9-.8.2-.1.3-.2.4-.4.1-.2.2-.4.2-.6.1-.2 0-.4 0-.6zM8.3 11.6c0-.4.1-.8.3-1.1.4.3.8.6 1.3.8.8.3 1.6.5 2.4.5h.1c1.1 0 2.2-.3 3.2-.9.1.2.1.4.1.7-.4.5-.9 1-1.5 1.3-.7.4-1.4.6-2.2.5-.8 0-1.5-.2-2.2-.5-.6-.3-1.1-.7-1.5-1.3zm6.3-2.2c.1.1.1.2.2.3-.7.4-1.6.7-2.5.7-.7 0-1.3-.1-1.9-.4-.4-.2-.7-.4-1-.7.7-.6 1.6-1 2.5-1 1.1 0 2 .4 2.7 1.1zm-6.3 9.7-3.4-3.4c1.2-.6 2.8-.6 3.4 0 .7.7.6 2.2 0 3.4zm1.1-4.5-.4-.4s.1 0 .1.1c.9.5 1.8.7 2.8.7h.2c1 0 2-.2 2.8-.7 0 0 .1 0 .1-.1-.1.2-.2.3-.4.4-1.4 1.5-3.8 1.5-5.2 0zm6.3-6.3c-.7-.7-.6-2.3 0-3.4l3.5 3.5c-1.3.5-2.8.6-3.5-.1z" fill="#333333"></path></svg>