<svg xmlns:xlink="http://www.w3.org/1999/xlink" xmlns="http://www.w3.org/2000/svg" viewBox="0 0 24 24" data-testid="svg-icon" class="" height="24" width="24"><path d="M20.7 10.6c0-.6-.2-1.2-.3-1.7 0-.1 0-.2-.1-.3-.3-.9-.7-1.8-1.3-2.5l1.6-1.6c.3-.3.3-.8 0-1.1-.3-.3-.8-.3-1.1 0L17.9 5c-.7-.6-1.6-1.1-2.5-1.4-.1-.1-.2-.1-.3-.1-.6-.2-1.1-.3-1.7-.3-1.9-.1-3.8.5-5.4 1.6-.2.2-.4.4-.5.6-.1.3-.2.5-.2.8l-.9.9c-4.7 4.7-2.9 10.2-2.3 11.8.1.2.2.4.4.6.2.2.4.3.6.4.7.3 2.4.8 4.4.8 2.2 0 5-.7 7.4-3.1l.9-.9c.3 0 .5-.1.8-.2.2-.1.4-.3.6-.5 1.1-1.6 1.7-3.5 1.5-5.4zm-3.9 3.9-1.3-1.3 1.4-.1-.1 1.4zm-5.9-7.4-.1 1.4-1.3-1.3 1.4-.1zM9.6 5.7c.4-.3.9-.5 1.4-.7v.6l-1.4.1zm7.6 1.1-.1 1.5-1.6.1.1-1.6h1.6zM14 8.6l-1.8.1.2-1.7h1.7L14 8.6zm-.1 1.5-.1 1.4-1.3-1.3 1.4-.1zm1.4 1.6.1-1.8H17v1.7l-1.7.1zm3.2-1.9h.5c.1.3.1.7.2 1v.7l-.8.1.1-1.8zm-5.7-5h.4c.3 0 .7.1 1 .2v.5l-1.8.1.1-.8h.3zM5.7 18.5s-.1 0-.1-.1l-.1-.1c-.5-1.4-2-6.2 2-10.2l.5-.5 2.4 2.4 6 6-.5.5c-4.1 4.1-8.9 2.6-10.2 2zm12.7-4.1.1-1.4h.6c-.3.5-.5 1-.7 1.4z" fill="#333333"></path></svg>