<svg xmlns:xlink="http://www.w3.org/1999/xlink" xmlns="http://www.w3.org/2000/svg" viewBox="0 0 24 24" data-testid="svg-icon" class="" height="24" width="24"><path d="M18.8 11.4c-.5-1.3-1.3-2.4-2.4-3.1-.9-.7-1.9-1.1-3-1.2V4.8h1.9c.4 0 .7-.4.7-.8s-.3-.8-.8-.8H9.9c-.4 0-.7.4-.7.8s.3.8.8.8h1.9v5.8c-.1-.1-.3-.1-.4-.2-.3-.2-.8-.1-1 .2-.2.3-.1.8.2 1 .6.4 1.3.6 2 .6s1.4-.2 2-.6c.3-.2.4-.7.2-1s-.7-.4-1-.2c-.1.1-.3.1-.4.2v-2c.8.1 1.5.5 2.1.9.9.6 1.5 1.5 1.9 2.5.4 1 .4 2.1.2 3.1s-.8 2-1.5 2.7-1.7 1.2-2.8 1.4c-1 .2-2.1.1-3.1-.3s-1.8-1.1-2.4-2c-.6-.9-.9-1.9-.9-3 0-.4-.3-.8-.8-.8s-.8.3-.8.8c0 1.4.4 2.7 1.1 3.8.7 1.1 1.8 2 3 2.5.9.4 1.8.6 2.7.6.4 0 .8 0 1.2-.1 1.3-.2 2.6-.9 3.5-1.8 1-.9 1.7-2.1 2-3.4.4-1.4.4-2.8-.1-4.1z" fill="#333333"></path><path d="M5.9 12.6c.1 0 .3 0 .4-.1 1.2-.2 2.3-.8 3.1-1.6.8-.9 1.4-2 1.6-3.1.1-.3.1-.6 0-.9-.1-.3-.2-.6-.4-.8s-.5-.4-.8-.4c-.3-.1-.6-.1-.8 0-1.1.2-2.2.8-3.1 1.6-.8.9-1.4 2-1.6 3.1-.1.3-.1.6 0 .9.1.3.2.6.4.8.2.2.5.4.8.4.1 0 .3.1.4.1zm-.1-1.8C6 9.9 6.4 9 7 8.4c.7-.6 1.5-1.1 2.4-1.3h.1l.1.1.7-.2-.6.4c-.2.9-.7 1.7-1.3 2.4-.7.6-1.5 1-2.4 1.2h-.1l-.2.7.1-.9z" fill="#333333"></path></svg>