<svg xmlns:xlink="http://www.w3.org/1999/xlink" xmlns="http://www.w3.org/2000/svg" viewBox="0 0 24 24" data-testid="svg-icon" class="" height="24" width="24"><path fill-rule="evenodd" clip-rule="evenodd" d="M4.716 5.853c-.132-.305-.191-.678-.049-1.052.142-.373.436-.612.737-.751a2.55 2.55 0 0 1 .97-.208c.342-.012.71.023 1.082.094.374.073.756.183 1.128.325.371.142.73.314 1.057.51a4.845 4.845 0 0 1 .902.68.75.75 0 0 1 1.49.123V7.27c2.418-.327 4.052.478 5.053 1.725.967 1.205 1.272 2.732 1.272 3.77a7.075 7.075 0 0 1-14.15 0c0-1.027.28-2.546 1.176-3.749a4.421 4.421 0 0 1 1.554-1.321 6.665 6.665 0 0 1-.767-.391 4.845 4.845 0 0 1-.87-.65 2.55 2.55 0 0 1-.585-.801Zm1.446-.481c.04.055.098.122.179.2.148.143.35.296.6.444.247.148.527.283.822.396.295.112.594.198.878.253.284.055.536.075.743.068.111-.004.2-.016.266-.03a1.55 1.55 0 0 0-.179-.2 3.357 3.357 0 0 0-.599-.445 5.316 5.316 0 0 0-.823-.396 5.317 5.317 0 0 0-.877-.253 3.358 3.358 0 0 0-.743-.068c-.112.004-.2.016-.267.03Zm.425 4.54c-.645.866-.88 2.035-.88 2.853a5.575 5.575 0 0 0 11.151 0c0-.807-.249-1.967-.942-2.831-.54-.673-1.397-1.229-2.8-1.238.551.585.888 1.28 1.076 1.99.409 1.542.136 3.22-.221 4.293a.75.75 0 0 1-1.423-.474c.301-.905.503-2.27.194-3.435-.151-.57-.418-1.071-.836-1.462-.415-.388-1.022-.707-1.923-.845-1.79-.276-2.796.344-3.396 1.15Z" fill="#333333"></path></svg>