<svg xmlns:xlink="http://www.w3.org/1999/xlink" xmlns="http://www.w3.org/2000/svg" viewBox="0 0 24 24" fill-opacity="0" data-testid="svg-icon" class="" height="24" width="24"><path d="M11.866 7.182A2.275 2.275 0 0 0 9.468 9.06l-.009.065a6.589 6.589 0 0 1-1.88 3.613A5.332 5.332 0 0 0 6 16.278c0 2.803 3.04 3.787 5.866 3.718 2.825.072 5.865-.915 5.865-3.719a5.332 5.332 0 0 0-1.58-3.54 6.774 6.774 0 0 1-1.793-3.148m1.826-2.857c-.517.48-1.16.803-1.854.93a.663.663 0 0 1-.842-.842c.128-.693.45-1.336.93-1.853a3.71 3.71 0 0 1 1.856-.932.663.663 0 0 1 .842.842 3.71 3.71 0 0 1-.932 1.855v0Z" stroke="#000000" stroke-width="1.5px" stroke-linecap="round" stroke-linejoin="round" fill="none" fill-opacity="0"></path><path d="M9.2 4.013a2.666 2.666 0 0 1 2.666 2.666v2.133" stroke="#000000" stroke-width="1.5px" stroke-linecap="round" stroke-linejoin="round" fill="none" fill-opacity="0"></path></svg>