<svg xmlns:xlink="http://www.w3.org/1999/xlink" xmlns="http://www.w3.org/2000/svg" viewBox="0 0 24 24" data-testid="svg-icon" class="" height="24" width="24"><path d="M16.2 9.7V7.8c0-.6-.3-1.3-.7-1.7-.4-.4-1.1-.7-1.7-.7h-.3v-.3c0-.5-.2-.9-.5-1.3-.7-.7-1.9-.7-2.6 0-.3.3-.5.8-.5 1.3v.3h-.2c-.7 0-1.3.2-1.7.7-.5.5-.7 1.1-.7 1.7v1.9c0 .4.2.7.4 1 .2.2.6.4.9.4l-.1 3c-.3.3-.6.6-.8.9-.3.5-.4 1-.4 1.6v.2c0 .2 0 .4.1.6-.1.1-.1.2-.1.4V20c0 .4.3.8.8.8h7.5c.4 0 .8-.3.8-.8v-2.1c0-.1-.1-.3-.1-.4.1-.2.1-.4.1-.6v-.2c0-.5-.1-1.1-.4-1.6-.2-.4-.5-.7-.8-.9l-.1-3c.3 0 .7-.2.9-.4.1-.3.2-.7.2-1.1zm-4.7-4.9c.1-.1.1-.1.2-.1s.2 0 .2.1c.1.1.2.2.2.3 0 .1 0 .2-.1.2-.1.1-.3.1-.4 0-.1-.1-.1-.1-.1-.2-.1-.1 0-.2 0-.3zm-2.7 3c0-.2.1-.5.3-.7.1-.1.3-.2.6-.2h4.1c.2 0 .5.1.6.3.2.2.3.4.3.6v1.9h-6V7.8zm4.7 6.8c0 .2.1.5.4.6.3.2.5.4.6.6.1.3.2.5.2.8v.2c0 .1 0 .1-.1.2 0 0-.1.1-.2.1H9c-.1 0-.1 0-.2-.1 0 0-.1-.1-.1-.2v-.2c0-.3.1-.6.2-.8.1-.3.4-.5.6-.6.2-.1.3-.4.4-.6l.2-3.4h3.3l.1 3.4zm1.2 4.6h-6v-.6h6v.6z" fill="#333333"></path></svg>