<svg xmlns:xlink="http://www.w3.org/1999/xlink" xmlns="http://www.w3.org/2000/svg" viewBox="0 0 24 24" data-testid="svg-icon" class="" height="24" width="24"><path d="m17.6 14.1-2-2.8h.7c.3 0 .5-.1.7-.4.1-.2.1-.5 0-.8l-3.7-6.2c-.1-.2-.3-.4-.5-.5-.4-.2-1-.2-1.4 0-.2.1-.4.3-.5.5l-3.7 6.2c-.1.2-.1.5 0 .8.1.2.4.4.7.4h.7l-2 2.9c-.1.2-.2.5-.2.7 0 .3.1.5.2.7 0 .2.2.4.4.5.2.1.5.2.7.2h3.6V20c0 .4.3.8.8.8s.8-.3.8-.8v-3.7h3.6c.3 0 .5-.1.7-.2.2-.1.4-.3.5-.5.1-.2.2-.5.2-.7 0-.3-.1-.6-.3-.8zm-5.3.8h-.2c-.1 0-.2 0-.3.1H7.7l2.8-4c.2-.2.2-.5.1-.8-.1-.2-.4-.4-.7-.4H9l3-5 3 5h-.8c-.3 0-.5.2-.7.4-.1.2-.1.5.1.8l2.8 3.9h-4.1z" fill="#333333"></path></svg>