<svg xmlns:xlink="http://www.w3.org/1999/xlink" xmlns="http://www.w3.org/2000/svg" viewBox="0 0 24 24" data-testid="svg-icon" class="" height="24" width="24"><path d="M17.5 4.9c-.1-.2-.2-.6-.7-.8-.3-.2-.6-.3-1-.3-.3 0-.7-.1-1.1 0-.4 0-.8.1-1.2.2-.4.1-.8.2-1.1.4-.3.1-.6.3-.8.5-.1-.2-.3-.3-.6-.3-.4 0-.8.3-.8.8v1.5c-2.7.4-4.9 2.8-5.3 5.8-.5 3.5 1.7 6.9 5 7.3 3.3.4 6.2-2.3 6.7-5.8.3-2.6-.7-5.1-2.6-6.4.2 0 .3 0 .5-.1.4-.1.8-.2 1.1-.4.4-.2.7-.4.9-.6.5-.2.7-.4.8-.7.3-.4.3-.8.2-1.1zM15.2 14c-.3 2.1-1.5 3.6-3.1 4.2-1.6-.7-2.7-2.5-2.7-4.7 0-.4-.3-.8-.7-.8-.4 0-.8.3-.8.7-.1 1.9.6 3.7 1.8 4.9-2.1-.5-3.6-2.8-3.2-5.5.4-2.9 2.7-4.8 5-4.5 2.3.4 4.1 2.8 3.7 5.7zm.5-8.4c-.2.1-.4.3-.7.4l-.9.3c-.3.1-.6.1-.9.2h-.8c-.1 0-.2 0-.3-.1 0-.1.1-.1.2-.2.2-.1.4-.3.7-.4l.9-.3c.3-.1.6-.1.9-.2h.8c.1 0 .2 0 .3.1 0 0 0 .1-.2.2z" clip-path="url(#plum_svg__b)" fill-rule="evenodd" clip-rule="evenodd" fill="#333333"></path></svg>