<svg xmlns:xlink="http://www.w3.org/1999/xlink" xmlns="http://www.w3.org/2000/svg" viewBox="0 0 24 24" data-testid="svg-icon" class="" height="24" width="24"><path fill-rule="evenodd" clip-rule="evenodd" d="M11.72 4c.27 0 .5.22.5.5v2.04l1.74-1.84a.5.5 0 0 1 .72.7l-1.66 1.74c3.11.49 5.48 2.7 5.48 5.58 0 2.6-1.92 4.7-4.65 5.4-.13.04-.2.12-.23.18l-.3.67a1.75 1.75 0 0 1-3.2 0l-.3-.67a.334.334 0 0 0-.23-.17C6.85 17.4 5 15.3 5 12.72c0-2.87 2.3-5.09 5.41-5.58l-.01-.01-.01-.02h-.01l-.01-.02h-.01l-.01-.02h-.01l-.01-.02-.01-.01-.01-.01-.01-.01-.01-.01-.01-.01-.01-.01-.01-.01-.01-.01-.01-.01-.01-.01-.01-.01v-.01l-.02-.01V6.9l-.02-.01v-.01l-.02-.01v-.01l-.01-.01h-.01l-.01-.02h-.01v-.02h-.02V6.8h-.01l-.01-.01-.01-.01-.01-.01v-.01h-.02v-.02h-.01l-.01-.02H10V6.7l-.02-.01-.01-.02h-.01v-.01l-.02-.01v-.01h-.01l-.01-.02-.01-.01-.01-.01v-.02h-.01l-.01-.01-.01-.01-.01-.02h-.01v-.01h-.02v-.02L9.8 6.5v-.01h-.01l-.01-.02-.01-.01h-.01v-.01l-.01-.01h-.01v-.01l-.01-.01-.02-.01V6.4l-.01-.01-.01-.01-.01-.01v-.01h-.01l-.01-.01-.01-.01v-.01h-.01v-.01h-.02V6.3H9.6v-.02h-.01v-.01l-.01-.01h-.01v-.01h-.01v-.01h-.01v-.01h-.01v-.01h-.01V6.2l-.01-.01-.01-.01-.01-.01-.01-.01v-.01h-.01v-.01h-.01l-.01-.01-.01-.01-.01-.01V6.1h-.02v-.01H9.4v-.02h-.01v-.01h-.01v-.01l-.01-.01h-.01v-.01h-.01v-.01L9.33 6h-.02v-.01l-.01-.01-.01-.01-.01-.01v-.01h-.01v-.01h-.01l-.01-.01v-.01h-.01V5.9h-.02v-.01h-.01v-.01H9.2v-.02h-.01v-.01h-.01v-.01h-.01v-.01h-.01v-.01h-.01V5.8l-.01-.01-.01-.01-.01-.01-.01-.01-.01-.01v-.01h-.01v-.01h-.01v-.01h-.01v-.01h-.01V5.7h-.02v-.01h-.01v-.01h-.01v-.01H9v-.02h-.01v-.01h-.01v-.01h-.01v-.01h-.01V5.6h-.02v-.01l-.01-.01h-.01v-.01l-.01-.01-.01-.01-.01-.01v-.01h-.01v-.01h-.01V5.5h-.02v-.01h-.01v-.01h-.01v-.01h-.01v-.01H8.8v-.02h-.01v-.01h-.01v-.01h-.01V5.4h-.01a.5.5 0 1 1 .72-.7v.01h.01v.01l.01.01.01.01.01.01v.01h.01l.01.01.01.01.01.01v.01h.01v.01h.01v.01h.01v.01h.01v.01h.01v.01h.01v.01h.01v.01h.01v.01h.01v.01h.01v.01h.01v.01h.01v.01l.01.01.01.01.01.01.01.01.01.01v.01h.01V5h.02v.01h.01v.01h.01v.01h.01v.01h.01v.01h.01v.01h.01v.01h.01v.01h.01v.01h.01v.01h.01v.01h.01v.01h.01v.01l.01.01.01.01.01.01.01.01.01.01.01.01v.01h.01v.01h.01v.01h.01v.01h.01v.01H10v.02h.01v.01h.01v.01h.01v.01h.01v.01h.01v.01l.01.01h.01v.01l.01.01.01.01.01.01.01.01v.01h.01l.01.01v.01h.01v.01h.01l.01.01v.01h.01v.01h.01v.01h.01v.01h.01v.01h.01v.01h.01v.01l.01.01.01.01.01.01.01.01.01.01.01.01.01.01.01.01.01.01.01.01.01.01v.01h.01l.01.01.01.01v.01h.01v.01h.01l.01.02h.01v.01l.01.01h.01v.01l.01.01.02.01v.01l.01.01.01.01.01.01.01.01.01.01.01.01.01.02h.01v.01h.02v.02l.02.01.01.02.02.01.01.02.01.01.01.01h.01v.02h.02v.01l.01.01.02.02.01.01.01.01v.01h.02v.02h.01l.01.01v.01l.02.01v.01h.01l.01.02h.01l.01.02.02.01v.01l.01.01.01.01.01.01.01.01.01.01.01.01v.01h.02v.02h.02v.02h.02v.02h.01l.01.02h.01l.01.02H11l.01.02.01.01.01.01.01.01.01.01.01.01.01.01.01.01.01.01.01.01.01.02h.01l.01.02h.01l.01.02.02.01v.01l.02.01v.01l.02.02V4.5c0-.28.23-.5.5-.5Zm0 4.54c-3.17 0-5.22 1.98-5.22 4.18 0 1.78 1.27 3.38 3.47 3.96.5.13.97.47 1.21 1l.31.67c.09.2.37.2.46 0l.3-.67c.24-.53.71-.87 1.22-1 2.22-.58 3.53-2.19 3.53-3.96 0-2.19-2.1-4.18-5.28-4.18Zm-2.5 2.62a.5.5 0 1 0-.94-.32l-.08.23a4.5 4.5 0 0 0 0 2.85l.08.24a.5.5 0 1 0 .94-.32l-.07-.24a3.5 3.5 0 0 1 0-2.21l.07-.23Zm6-.32a.5.5 0 1 0-.94.32l.07.23c.24.72.24 1.5 0 2.21l-.07.24a.5.5 0 1 0 .94.32l.08-.24c.31-.92.31-1.92 0-2.85l-.08-.23Zm-2.97.16a.5.5 0 0 0-1 0v3a.5.5 0 1 0 1 0v-3Z" fill="#333333"></path></svg>