<svg xmlns:xlink="http://www.w3.org/1999/xlink" xmlns="http://www.w3.org/2000/svg" viewBox="0 0 24 24" fill-opacity="0" data-testid="svg-icon" class="" height="24" width="24"><path d="M11.266 20v-5.333m4.936 3.786a3.713 3.713 0 0 1-1.856.93.664.664 0 0 1-.84-.84c.127-.695.45-1.338.93-1.855a3.706 3.706 0 0 1 1.855-.931.663.663 0 0 1 .842.842 3.712 3.712 0 0 1-.931 1.854v0ZM7.734 5.872c.853 1.901 2.971 2.964 5.666 2.395V10.4a3.21 3.21 0 0 1-3.2 3.2H8.445" stroke="#000000" stroke-width="1.5px" stroke-linecap="round" stroke-linejoin="round" fill="none" fill-opacity="0"></path><path d="M10.251 8.143a1.606 1.606 0 0 1 1.548-2.01v0a1.605 1.605 0 0 1 1.6 1.6v.534" stroke="#000000" stroke-width="1.5px" stroke-linecap="round" stroke-linejoin="round" fill="none" fill-opacity="0"></path><path d="M15.533 10.4a4.267 4.267 0 0 1-8.534 0V8.267a4.267 4.267 0 1 1 8.534 0V10.4Z" stroke="#000000" stroke-width="1.5px" stroke-linecap="round" stroke-linejoin="round" fill="none" fill-opacity="0"></path></svg>