<svg xmlns:xlink="http://www.w3.org/1999/xlink" xmlns="http://www.w3.org/2000/svg" viewBox="0 0 42 40" data-testid="svg-icon" class="" height="24" width="24"><path d="M7.8 34.5c-.7 0-.8-.2-.9-.4 0 0-.3-.6 1.8-2.7a21 21 0 0 1 4.5-3.4l1.2-.6a26.4 26.4 0 0 1-3.6-1.1 41.2 41.2 0 0 1-7-3.7C.6 20.4.8 20 .9 19.7c0-.3.3-.7 4.2 0a41.3 41.3 0 0 1 7.6 2.2l1.2.5a38.2 38.2 0 0 1-1.5-2.1 54.3 54.3 0 0 1-4.2-8C6.3 8 6.7 7.6 7 7.5c.2-.2.6-.4 3.7 3a54.6 54.6 0 0 1 5.6 7.1l1 1.8a47.2 47.2 0 0 1 0-3.7c0-3.6.2-7 .7-10.5C18.8 0 19.2 0 19.6 0c.3 0 .8 0 1.5 5.3a74 74 0 0 1 .7 14.2l1.1-1.8c1.7-2.7 8.2-10.9 9.3-10.1.3.1.6.4-1.1 4.6a54.1 54.1 0 0 1-4.2 8 38.3 38.3 0 0 1-1.5 2.2 34.4 34.4 0 0 1 1.2-.5c3.4-1.4 11.3-3.3 11.8-2.2 0 .3.3.7-3.1 3a41 41 0 0 1-7 3.6 26 26 0 0 1-3.5 1.2l1.2.6c2.6 1.3 6.8 5 6.3 6s-5.8-.4-8.5-1.9a11.1 11.1 0 0 1-4.2-3.6 11.1 11.1 0 0 1-4.1 3.6 20.8 20.8 0 0 1-5.3 2l-2.4.3zM19.6 27a.4.4 0 0 1 .4.4c.2.6 1.4 2.5 4.2 4a19.7 19.7 0 0 0 7 2.1 19.7 19.7 0 0 0-5.6-4.7 12.3 12.3 0 0 0-2.7-1 .5.5 0 0 1 0-.9 23.6 23.6 0 0 0 5.1-1.4 39 39 0 0 0 9-5.2 38.7 38.7 0 0 0-10 2.4 25.6 25.6 0 0 0-3 1.4.4.4 0 0 1-.6-.6 33.9 33.9 0 0 0 2.7-3.7A52.6 52.6 0 0 0 31.3 9a52.3 52.3 0 0 0-7.6 9.2 33.1 33.1 0 0 0-2.2 3.9.5.5 0 0 1-.5.2.4.4 0 0 1-.3-.5c.2-2 .4-4 .3-6a70.4 70.4 0 0 0-1.4-14 70.4 70.4 0 0 0-1.5 14c0 2 .1 4 .4 6a.5.5 0 0 1-.8.3 33.2 33.2 0 0 0-2.2-4A52 52 0 0 0 7.9 9 52.6 52.6 0 0 0 13 19.8a33.1 33.1 0 0 0 2.8 3.7.5.5 0 0 1-.6.6 25 25 0 0 0-3-1.4 38.8 38.8 0 0 0-10-2.4 39 39 0 0 0 9 5.2 23.5 23.5 0 0 0 5 1.4.4.4 0 0 1 .4.4.4.4 0 0 1-.3.5c-1 .2-1.8.6-2.7 1A19.6 19.6 0 0 0 8 33.6a19.7 19.7 0 0 0 7-2c2.8-1.6 4-3.5 4.1-4.1a.5.5 0 0 1 .5-.4z" fill="#004739"></path><path opacity="0.2" d="M39.3 21.3a30.2 30.2 0 0 0-12.9 4.1 34.7 34.7 0 0 0 2-2.8 40.5 40.5 0 0 0 5.5-12c-.3-.1-5.2 4.7-8.6 10a33 33 0 0 0-2.2 3.8 55 55 0 0 0-1.5-21.2 55.2 55.2 0 0 0-1.5 21.2 33 33 0 0 0-2.1-3.9c-3.5-5.2-8.4-10-8.7-9.8-.3.2 2 6.6 5.4 11.9a36.2 36.2 0 0 0 2 2.9 27.6 27.6 0 0 0-1.9-1A29.1 29.1 0 0 0 4 21.2c-.1.4 4.4 4.2 9.3 6.6a25.3 25.3 0 0 0 3.6 1.4c-.5 0-1 .2-1.4.3-3.7 1-7.2 3.6-7 4 0 .3 4.3.7 8-.3a10.4 10.4 0 0 0 4.6-2.5V40h1.3v-9.2a10.5 10.5 0 0 0 4.5 2.4c3.7 1 8 .7 8 .4.2-.4-3.3-3-7-4-.4-.2-.9-.3-1.4-.3a24.7 24.7 0 0 0 3.6-1.5c4.9-2.3 9.4-6.2 9.3-6.5z" fill="#017C6B"></path></svg>