<svg xmlns:xlink="http://www.w3.org/1999/xlink" xmlns="http://www.w3.org/2000/svg" viewBox="0 0 24 24" data-testid="svg-icon" class="" height="24" width="24"><path d="M17 9.7c-.6 0-1.2.1-1.7.4v-.5c.2-.4.1-.8-.3-1-.4-.2-.8-.1-1 .3-.1.2-.2.5-.2.7 0 .3 0 .5.1.8.1.2.2.5.4.7h.1c-.2.4-.4.9-.4 1.4 0 .2 0 .4.1.6-.8 0-1.5-.1-1.8-.2 0-.1.1-.2.2-.4.3-.6.8-1.3.8-3.2 0-.7-.1-1.3-.4-1.9-.2-.6-.6-1.2-1.1-1.6s-1-.8-1.6-1.1c-.6-.3-1.3-.4-1.9-.5-1.3 0-2.6.5-3.6 1.5-.9 1-1.5 2.3-1.4 3.6 0 1.1.4 2.3 1.1 3.2.2.2.5.3.8.2.3-.1.5-.4.5-.7 0-.4.2-1.7.9-2.3.3-.2.6-.3 1.1-.3.4.1.7.3 1 .6.9 1.5 0 5.2-.5 6.5-.3.9-.5 1.9-.6 2.9 0 .4.3.8.7.8.4 0 .7-.3.7-.7 0-.5.1-1 .2-1.5.7.3 1.9.6 3.8.6.8 0 1.5-.1 2.1-.4l.3 1.4c.1.3.4.6.7.6h.2c.4-.1.6-.5.5-.9l-.5-1.9c.6-.6 1.1-1.3 1.3-2.2 1.5-.5 2.9-2.5 2.9-3.3.3-1.4-1.7-2.2-3.5-2.2zm.1 4.3c-.3 0-.6.3-.7.6-.3 1.8-1.4 2.7-3.4 2.7-2.1 0-3-.4-3.4-.6.4-1.4 1.5-5.3.2-7.3 0-.1-.1-.2-.1-.3h.3c.4.1.8-.2.9-.6.1-.4-.2-.8-.6-.9-1.3-.2-2.7 0-4 .6-.3.1-.5.3-.7.4-.4.3-.6.7-.8 1.1v-.4c0-.9.4-1.8 1-2.5.7-.7 1.6-1.1 2.5-1.1.5 0 .9.1 1.4.3.4.2.8.4 1.1.8.3.3.6.7.8 1.2.2.4.3.9.3 1.4 0 1.4-.3 2-.6 2.4-.2.4-.5.8-.5 1.4 0 .3.2.7.4.9.8.7 2.7.7 4.1.5.3 0 .5-.2.6-.5.1-.2.1-.5-.1-.7-.2-.2-.3-.5-.3-.8 0-.4.2-.8.5-1 .3-.3.7-.4 1.1-.4 1.2 0 2.2.5 2.2.8-.2.5-1.4 1.9-2.2 2z" fill="#333333"></path><path d="M18.1 12.3c0-.1 0-.3-.1-.4-.1-.1-.1-.2-.2-.3-.1-.1-.2-.2-.3-.2h-.8c-.1.1-.2.1-.3.2-.1.1-.2.2-.2.3v.8c.1.1.1.2.2.3.1.1.2.2.3.2.1 0 .2.1.4.1h.4c.1-.1.2-.1.3-.2.1-.1.2-.2.2-.3.1-.2.1-.3.1-.5z" fill="#333333"></path></svg>