<svg xmlns:xlink="http://www.w3.org/1999/xlink" xmlns="http://www.w3.org/2000/svg" viewBox="0 0 24 24" data-testid="svg-icon" class="" height="24" width="24"><path d="M20.3 3.3c-.4-.2-.8 0-1 .3L18.1 6c-.3 0-.7 0-1.1.1-.8.2-1.6.8-2.1 1.5-.4.1-.8.3-1.2.5-.5.3-.9.8-1.2 1.3L10 13.6c-.5.8-1.2 1.5-2.1 2-.9.5-1.8.7-2.8.7h-.6c-.2 0-.5.1-.7.2-.2.1-.4.3-.5.5-.1.2-.1.5-.1.7 0 .2.1.5.4.7 1.2 1.2 2.8 1.9 4.5 2.1.4 0 .7.1 1.1.1 1.3 0 2.6-.3 3.8-1 2.6-1.5 4.8-3.7 6.3-6.3.5-.8.7-1.7.5-2.6.5-.8.7-1.8.5-2.7-.1-.6-.4-1.1-.9-1.4l1.2-2.3c.3-.3.1-.8-.3-1zm-2.2 9.4c-1.4 2.4-3.4 4.4-5.8 5.7-1.2.7-2.6.9-4 .7-1.2-.1-2.3-.5-3.2-1.2 1.2 0 2.5-.3 3.6-.9 1.1-.6 2-1.5 2.6-2.6l2.5-4.2c.2-.3.4-.6.7-.8.3-.2.6-.3 1-.4.4-.1.7 0 1.1.1s.7.3.9.5c.4.4.7.9.8 1.5.2.5.1 1.1-.2 1.6zm.5-4.2c-.4-.4-.9-.7-1.5-.8.1 0 .2-.1.2-.1.3-.1.6-.1 1 .1.3.2.5.6.5.8v.4c0-.2-.1-.3-.2-.4z" fill="#333333"></path></svg>