<svg xmlns:xlink="http://www.w3.org/1999/xlink" xmlns="http://www.w3.org/2000/svg" viewBox="0 0 24 24" data-testid="svg-icon" class="" height="24" width="24"><path d="M14.8 9.1H9.6c-2.2.2-3.5 1.8-3.3 4 .2 3.3 3.2 7.6 6 7.6s5.8-4.4 6-7.6c0-2.2-1.2-3.8-3.5-4zm-2.6 10.1c-1.8 0-4.3-3.5-4.5-6.2-.1-1.5.6-2.3 1.9-2.5h5c1.4.2 2.1 1 2 2.5-.1 2.7-2.6 6.2-4.4 6.2zM8.4 7.6c.5.5 1.1.9 1.6 1 .3.1.5.1.7.1.4 0 .8-.1 1-.4.4-.4.5-1 .3-1.8-.2-.5-.5-1-1-1.5s-1.1-.9-1.6-1c-.7-.3-1.4-.2-1.8.2-.4.4-.5 1.1-.3 1.8.2.5.6 1.1 1.1 1.6zm.5-2.2c.3.1.7.4 1 .7.3.3.6.7.7 1v.2h-.2c-.3-.1-.7-.4-1-.7-.3-.3-.6-.7-.7-1v-.2c.1-.1.1 0 .2 0zm4.7 3.3h.2c.2 0 .5 0 .7-.1.3-.1.6-.2.8-.4.3-.2.5-.4.7-.6.2-.2.4-.5.6-.8.3-.3.4-.5.5-.8.1-.3.1-.6.1-.9 0-.3-.2-.6-.4-.9-.2-.2-.5-.4-.9-.4-.3 0-.6 0-.9.1-.3.1-.6.2-.8.4l-.7.7c-.2.2-.4.5-.6.8-.2.3-.3.6-.4.8-.1.3-.1.6-.1.9 0 .3.2.6.4.9.1.2.4.3.8.3zm.2-1.6c.1-.2.1-.3.2-.5s.3-.4.4-.5c.2-.2.3-.3.5-.4.2-.1.3-.2.5-.2h.2v.2c0 .1-.1.3-.2.5s-.3.4-.4.5c-.2.2-.3.3-.5.4-.2.1-.3.2-.5.2h-.2v-.2z" fill="#333333"></path><path d="m10.2 11.9-.5-.5c-.3-.3-.8-.3-1.1 0s-.3.8 0 1.1l.5.5c.1.1.3.2.5.2s.4-.1.5-.2c.4-.4.4-.9.1-1.1zm1.5 2.5-.5-.5c-.3-.3-.8-.3-1.1 0s-.3.8 0 1.1l.5.5c.1.1.3.2.5.2s.4-.1.5-.2c.4-.3.4-.8.1-1.1zm2.1-.5c-.3-.3-.8-.3-1.1 0s-.3.8 0 1.1l.5.5c.1.1.3.2.5.2s.4-.1.5-.2c.3-.3.3-.8 0-1.1l-.4-.5zm-1.3 2.5c-.3-.3-.8-.3-1.1 0-.3.3-.3.8 0 1.1l.5.5c.1.1.3.2.5.2s.4-.1.5-.2c.3-.3.3-.8 0-1.1l-.4-.5zm-.6-3.5c.1.1.3.2.5.2s.4-.1.5-.2c.3-.3.3-.8 0-1.1l-.5-.5c-.3-.3-.8-.3-1.1 0-.3.3-.3.8 0 1.1l.6.5zm3.4-1.6c-.3-.3-.8-.3-1.1 0s-.3.8 0 1.1l.5.5c.1.1.3.2.5.2s.4-.1.5-.2c.3-.3.3-.8 0-1.1l-.4-.5z" fill="#333333"></path></svg>