<svg xmlns:xlink="http://www.w3.org/1999/xlink" xmlns="http://www.w3.org/2000/svg" viewBox="0 0 24 24" data-testid="svg-icon" class="" height="24" width="24"><path d="M14.8 8c0-.3-.1-.6-.2-.8-.1-.4-.4-.7-.6-.9-.3-.3-.6-.5-1-.7-.1 0-.2-.1-.3-.1.1-.2.1-.3.3-.4.1-.1.3-.2.4-.3.2-.1.3-.1.5 0 .4.1.8-.2.8-.6.1-.4-.2-.8-.6-.8-.4-.1-.8 0-1.2.1s-.7.3-1 .6c-.3.3-.5.6-.6 1 0 .1-.1.3-.1.5-.1 0-.3.1-.4.1-.3.1-.6.3-.9.5-.3.3-.5.6-.6 1-.1.2-.2.5-.2.8-3 .8-4.8 2.6-4.8 5.1 0 .7.2 1.4.7 2 .3.4.7.7 1.2.9l.7 3.3c.1.4.3.8.7 1 .3.3.7.4 1.2.4h6.5c.4 0 .8-.1 1.2-.4.3-.3.6-.6.7-1l.7-3.3c.5-.2.9-.5 1.2-.9.4-.6.7-1.3.7-2-.2-2.5-2-4.3-5-5.1zm-4.1-.2c.1-.2.2-.3.3-.4.1-.1.3-.2.4-.3.2-.1.3-.1.5-.1s.4 0 .5.1c.2.1.3.2.4.3.1.1.2.3.3.4.1.2.1.3.1.5s0 .4-.1.5c0 .2-.1.3-.2.5-.1.1-.3.2-.4.3-.3.1-.7.1-1.1 0-.2-.1-.3-.2-.4-.3-.1-.1-.2-.3-.3-.4-.1-.2-.1-.3-.1-.5-.1-.3 0-.5.1-.6zM8.4 19.2c-.1 0-.1-.1-.1-.2l-.6-2.7c.4 0 .8-.1 1.1-.3 0 0 .1 0 .1-.1l.5 3.3h-1zm4.5 0H11l-.5-3.2c.5.2 1 .4 1.5.4s1-.1 1.5-.4l-.6 3.2zm2.5 0c-.1.1-.1.1-.2.1h-.8l.5-3.3s.1 0 .1.1c.4.2.7.3 1.1.3l-.6 2.6s0 .1-.1.2zm2.3-5c-.2.3-.6.5-1 .6-.4.1-.8 0-1.1-.1-.4-.2-.6-.4-.8-.8-.1-.3-.4-.4-.7-.4-.3 0-.5.2-.7.4-.1.3-.4.5-.6.7-.5.3-1.3.3-1.8 0-.3-.2-.5-.4-.6-.7-.1-.3-.4-.4-.7-.4-.3 0-.5.2-.7.4-.2.3-.5.6-.8.8-.4.2-.8.2-1.1.1-.4-.1-.7-.3-1-.6s-.4-.7-.4-1.1c0-2.3 2.2-3.2 3.6-3.6.1.3.3.6.6.8.3.3.6.5.9.6.4.1.7.2 1.1.2.4 0 .8-.1 1.1-.2s.7-.4.9-.6c.2-.2.4-.5.6-.8 1.3.4 3.6 1.4 3.6 3.6 0 .4-.1.8-.4 1.1z" fill="#333333"></path></svg>