<svg xmlns:xlink="http://www.w3.org/1999/xlink" xmlns="http://www.w3.org/2000/svg" viewBox="0 0 24 24" data-testid="svg-icon" class="" height="24" width="24"><path d="M18.7 14.5V14c0-1-.2-2-.6-2.9 0-.1 0-.1-.1-.2-.2-.4-.4-.9-.7-1.3L13 3.8c-.1-.2-.3-.3-.5-.4-.4-.2-.8-.2-1.2 0-.2.1-.3.2-.5.4L6.7 9.6c-.9 1.3-1.4 2.8-1.4 4.4 0 1.8.7 3.5 2 4.8 1.3 1.3 3 2 4.8 2 1.8 0 3.5-.7 4.8-2 1-1.2 1.7-2.7 1.8-4.3zM8.3 17.7c-1-1-1.5-2.3-1.5-3.7 0-1.3.4-2.5 1.1-3.5L12 4.9l1.7 2.3h-1.2c-.4 0-.8.3-.8.8s.3.8.8.8h2.3l1.3 1.8h-3.6c-.4 0-.8.3-.8.8s.3.8.8.8h4.4c.2.6.3 1.2.3 1.8h-4.7c-.4 0-.8.3-.8.8s.3.8.8.8H17c-.2.6-.4 1.2-.8 1.8h-3.7c-.4 0-.8.3-.8.8s.3.8.8.8h2c-.8.4-1.6.7-2.5.7-1.4-.5-2.7-1-3.7-2z" fill="#333333"></path></svg>