<svg xmlns:xlink="http://www.w3.org/1999/xlink" xmlns="http://www.w3.org/2000/svg" viewBox="0 0 24 24" data-testid="svg-icon" class="" height="24" width="24"><path d="M19.5 11.9c-.7-.7-1.7-1.2-2.8-1.2h-.5c-.1-.2-.2-.4-.4-.5-.3-.3-.8-.5-1.3-.5H6.1c-.5 0-.9.2-1.3.5s-.6.8-.6 1.3v3.2c0 1.6.6 3.2 1.8 4.3 1.1 1.1 2.7 1.8 4.3 1.8.8 0 1.6-.2 2.3-.5.7-.3 1.4-.8 2-1.3.1-.1.2-.2.3-.4h1.8c1.1 0 2-.4 2.8-1.2s1.2-1.7 1.2-2.8c0-1-.4-2-1.2-2.7zm-7.4 7c-1.7.7-3.7.3-5-1-.9-.9-1.3-2-1.3-3.2v-3.2c0-.1 0-.2.1-.2.1-.1.1-.1.2-.1h3v1.7h-.9c-.4 0-.8.3-.8.8v3.2c0 .4.3.8.8.8h3.2c.4 0 .8-.3.8-.8v-3.2c0-.4-.3-.8-.8-.8h-.9v-1.7h4c.1 0 .2 0 .2.1.1.1.1.1.1.2v3.2c0 .6-.1 1.2-.3 1.8-.2.6-.6 1.1-1 1.5-.4.3-.9.7-1.4.9zm-1.5-4.6V16H9v-1.7h1.6zm7.9 2.1c-.5.5-1.1.7-1.7.7H16s0-.1.1-.1c.3-.7.5-1.5.5-2.3v-2.5h.3c.7 0 1.3.3 1.7.7.5.5.7 1.1.7 1.7-.1.7-.4 1.3-.8 1.8zm-5-6.9c.2 0 .3 0 .4-.1.3-.2.4-.7.2-1-.5-.6-.3-.9.2-1.6.4-.7 1.1-1.7.4-3-.2-.4-.6-.5-1-.3s-.5.6-.3 1c.3.6.1.9-.3 1.6-.5.7-1.2 1.9-.1 3.4.1-.1.3 0 .5 0zm-3.2 0c.2 0 .3 0 .4-.1.3-.2.4-.7.2-1-.5-.6-.3-.9.2-1.6.4-.7 1.1-1.7.4-3-.2-.4-.6-.5-1-.3s-.5.6-.3 1c.3.6.1.9-.3 1.6-.5.5-1.3 1.7-.2 3.1.2.2.4.3.6.3zm-3.2 0c.2 0 .3 0 .4-.1.3-.2.4-.7.2-1-.4-.7-.3-.9.2-1.7.4-.7 1.1-1.7.4-3-.2-.4-.6-.5-1-.3-.3.1-.5.6-.3.9.3.6.1.9-.3 1.6-.5.7-1.3 1.9-.2 3.3.2.2.4.3.6.3z" fill="#333333"></path></svg>