<svg xmlns:xlink="http://www.w3.org/1999/xlink" xmlns="http://www.w3.org/2000/svg" viewBox="0 0 24 24" data-testid="svg-icon" class="" height="24" width="24"><path d="M20.2 14.4c-.3-.3-.8-.5-1.3-.5H6.1c-.4 0-.8.3-.8.8V19c0 .4.3.8.8.8h12.8c.5 0 .9-.2 1.3-.5.3-.3.5-.8.5-1.3v-2.1c.1-.7-.1-1.2-.5-1.5zm-13.3.9h7v2.8h-7v-2.8zm12.3 2.5c0 .1 0 .2-.1.2-.1.1-.1.1-.2.1h-3.5v-2.8h3.5c.1 0 .2 0 .2.1.1.1.1.1.1.2v2.2zM4 13.8c-.4 0-.8.3-.8.8v4.3c0 .4.3.8.8.8s.8-.3.8-.8v-4.3c0-.4-.4-.8-.8-.8zm4.9-6c.8-.8 1.2-1.7 1.2-2.8 0-.4-.3-.8-.8-.8s-.7.4-.7.8c0 .7-.3 1.3-.7 1.7s-1.1.8-1.8.8c-.8 0-1.5.3-2 .8s-.8 1.3-.8 2c0 .4.3.8.8.8s.8-.3.8-.8c0-.4.1-.7.4-1s.5-.3.8-.3c1.1 0 2.1-.5 2.8-1.2z" fill="#333333"></path><path d="M5.4 11.4c0 .4.3.8.8.8 1.9 0 3.7-.7 5.1-2.1S13.4 7 13.4 5c0-.4-.3-.8-.8-.8s-.8.4-.8.8c0 1.5-.6 2.9-1.7 4s-2.5 1.7-4 1.7c-.4-.1-.7.3-.7.7z" fill="#333333"></path></svg>