<svg xmlns:xlink="http://www.w3.org/1999/xlink" xmlns="http://www.w3.org/2000/svg" viewBox="0 0 24 24" data-testid="svg-icon" class="" height="24" width="24"><path d="M9.7 16.7c.2-.1.5-.2.7-.4.2-.2.3-.4.4-.7.1-.2.1-.5 0-.7-.2-.9-.6-1.7-1.3-2.4-.7-.6-1.5-1.1-2.3-1.2-.2-.1-.5-.1-.8 0-.2.1-.5.2-.7.4-.2.2-.3.4-.4.7-.1.2-.1.5 0 .7.2.9.6 1.7 1.3 2.4.7.6 1.5 1.1 2.3 1.2.1 0 .3.1.4.1.1 0 .3-.1.4-.1zm-2.1-2.3c-.4-.5-.7-1.1-.9-1.6.6.1 1.2.4 1.7.9.4.5.7 1 .9 1.6-.6-.2-1.2-.5-1.7-.9z" fill="#333333"></path><path d="M19.1 8.3c-.3-.5-.7-.9-1.2-1.2 0-.2 0-.4-.1-.6-.1-.4-.3-.7-.5-1-.3-.3-.6-.5-.9-.6-.3-.1-.6-.2-.8-.2-.3-.4-.7-.7-1.2-.9-1.1-.6-2.6-.6-3.7 0-.4.2-.9.6-1.2.9-.3 0-.6.1-.8.2-.4.1-.7.3-1 .6s-.4.6-.5 1c0 .2-.1.4-.1.6-.6.3-1 .8-1.3 1.4-.1.2-.2.4-.3.7l-.2.6v.4c0 .4.3.8.7.8s.8-.3.8-.8l.1-.6c0-.1.1-.3.2-.4.3-.5.6-.8 1.1-1 .3-.1.5-.5.4-.8v-.5c0-.2.1-.3.2-.4.2-.1.3-.2.4-.3.1-.1.3-.1.4-.1h.1c.3 0 .5-.1.7-.3.3-.3.6-.6.9-.8.7-.4 1.6-.4 2.3 0 .4.2.7.5.9.8.2.2.5.3.7.3h.1c.2 0 .3 0 .5.1.1.1.3.2.4.3.1.1.2.3.2.4v.5c-.1.3.1.7.4.8.4.2.8.5 1.1.9.3.4.4.8.4 1.3 0 .6-.2 1.1-.6 1.5-.4.4-.9.7-1.4.9-.2 0-.4.2-.5.4-.1.2-.3.5-.5.6-.2.2-.5.3-.7.3-.3.1-.5.1-.8 0h-.4v-.8c.1.1.3.1.4.2.1.1.3.1.4.1.2 0 .5-.1.6-.3.2-.3.1-.8-.2-1-.6-.4-1.3-.6-1.9-.6h-.2c-.7 0-1.4.2-1.9.6-.3.2-.4.7-.2 1 .2.3.7.4 1 .2.1-.1.3-.1.4-.2v5.8H9.9c-.4 0-.8.3-.8.8s.3.8.8.8h5.3c.4 0 .8-.3.8-.8s-.3-.8-.8-.8h-1.9v-3.6c.3.1.5.1.8.1.2 0 .5 0 .7-.1.5-.1 1-.3 1.3-.6.3-.2.5-.5.7-.8.8-.2 1.4-.7 1.9-1.3.6-.7.9-1.6.9-2.5.1-.6-.1-1.4-.5-2z" fill="#333333"></path></svg>