<svg xmlns:xlink="http://www.w3.org/1999/xlink" xmlns="http://www.w3.org/2000/svg" viewBox="0 0 24 24" data-testid="svg-icon" class="" height="24" width="24"><path d="M17.9 5.8c-.1-.2-.2-.3-.3-.5-.5-.5-1.2-.8-1.9-.9-.7-.1-1.4 0-2.1.3-.2.1-.4.2-.6.4-.1-.2-.2-.4-.4-.5-.4-.5-1-.8-1.6-1.1-.6-.1-1.1-.2-1.7-.3-.2 0-.4 0-.6.1-.2.2-.4.3-.5.5-.1.2-.2.4-.2.6 0 .2 0 .4.1.6l.2.4c-.5.1-1.1.3-1.6.6-.6.4-1.1 1-1.4 1.8 0 .2-.1.4 0 .6 0 .2.1.4.2.6.1.2.3.3.4.4.2.1.4.2.6.2h2.4C5.6 13.2 5.3 18 5.3 19.7v.3c0 .4.3.8.7.8.4 0 .7-.3.7-.7v-.3c.1-1.5.3-5.7 3.1-9-.9 3-1.2 6.2-.9 9.3 0 .4.4.7.7.7h.1c.4 0 .7-.4.7-.8-.4-3.4.1-6.8 1.2-10l3.7 2.3c.2.1.4.2.6.2.2 0 .4-.1.6-.2.2-.1.4-.3.5-.4.1-.2.2-.4.2-.6.1-.7-.1-1.5-.4-2.1-.2-.4-.5-.8-.9-1.1l1.2-.7c.2-.1.3-.2.4-.4.1-.2.2-.4.2-.6.3-.3.2-.5.2-.6zm-3.4 1.4c-.3-.1-.5-.1-.8-.2-.4 0-.8.3-.8.7 0 .4.3.8.7.8.4 0 .8.2 1.2.3.4.2.7.5.9.9.2.3.2.6.3.9L11.8 8H6.9c.1-.3.4-.5.7-.7.4-.3.8-.4 1.2-.4.5 0 1.1.2 1.5.4.4.2.8.1 1-.3.2-.4.1-.8-.3-1-.3-.2-.6-.3-.9-.4l-.4-.8c.3 0 .6.1.8.2.4.1.7.4 1 .6.3.3.5.6.6 1 0 .1.1.1.1.2v.1l.1.1.1.1h.7c.2-.1.3-.2.4-.3.2-.3.4-.5.7-.7.4-.2.8-.2 1.2-.2.3 0 .6.1.8.3l-1.7 1z" fill="#333333"></path></svg>