<svg xmlns:xlink="http://www.w3.org/1999/xlink" xmlns="http://www.w3.org/2000/svg" viewBox="0 0 24 24" data-testid="svg-icon" class="" height="24" width="24"><path fill-rule="evenodd" clip-rule="evenodd" d="M5.814 11.655a.781.781 0 0 1-.019-.169v-3.2a.53.53 0 0 0-1.06 0V12.7c0 .702.24 1.383.678 1.931l1.718 2.148a.75.75 0 0 1-1.172.937l-1.718-2.148A4.591 4.591 0 0 1 3.235 12.7V8.286a2.031 2.031 0 0 1 4.06 0v1.401a1.27 1.27 0 0 1 .104-.02c.26-.05.53-.046.781.012.257.057.5.167.716.322.206.15.38.337.514.554l.97 1.454c.503.755.772 1.643.771 2.55v2.675a.75.75 0 0 1-1.5.001v-2.677a3.088 3.088 0 0 0-.519-1.716L8.14 11.35a.444.444 0 0 0-.786.411l1.131 1.888a.75.75 0 0 1-1.287.771l-1.15-1.92a1.935 1.935 0 0 1-.233-.845zm10.874-1.97V8.286a2.032 2.032 0 0 1 4.059 0V12.7a4.585 4.585 0 0 1-1.006 2.868l-1.718 2.148a.75.75 0 0 1-1.17-.937l1.717-2.148a3.087 3.087 0 0 0 .677-1.93V8.285a.527.527 0 1 0-1.059 0v3.2a.69.69 0 0 1-.003.065c.004.311-.066.62-.209.902l-.026.048-1.153 1.92a.75.75 0 0 1-1.286-.773l1.134-1.887a.44.44 0 0 0-.156-.552.448.448 0 0 0-.35-.065.443.443 0 0 0-.28.203l-.996 1.495a3.082 3.082 0 0 0-.519 1.716v2.676a.75.75 0 0 1-1.5 0V14.56a4.577 4.577 0 0 1 .772-2.549l.968-1.453a1.942 1.942 0 0 1 2.104-.872z" fill="#333333"></path></svg>