<svg xmlns:xlink="http://www.w3.org/1999/xlink" xmlns="http://www.w3.org/2000/svg" viewBox="3 4 18 16" data-testid="svg-icon" class="" height="24" width="24"><path d="M16.6 5c-1.1-1.1-2.7-1.8-4.3-1.8-1.6.1-3.1.7-4.3 1.8-1.1 1.2-1.7 2.7-1.8 4.3v2.1c0 .5.2.9.5 1.3.4.4 1 .6 1.6.5l2.3 6.4c.1.3.4.6.7.8.3.2.6.3 1 .3s.7-.1 1-.3c.3-.2.5-.5.7-.8l2.2-6.3h.3c.5 0 .9-.2 1.3-.5.3-.3.5-.8.5-1.3V9.3c.1-1.6-.5-3.1-1.7-4.3zm-4 14.1c0 .1-.1.1-.1.1-.1.1-.2.1-.3 0-.1 0-.1-.1-.1-.1l-2.4-6.8c.1-.3.2-.6.2-.9v-1.1c0-.1 0-.2.1-.2.1-.1.3-.1.4 0 .1.1.1.1.1.2v1.1c0 .5.2.9.5 1.3.3.3.8.5 1.3.5s.9-.2 1.3-.5c.3-.3.5-.8.5-1.3v-1.1c0-.1 0-.2.1-.2.1-.1.3-.1.4 0 .1.1.1.1.1.2v1.1c0 .3.1.6.2.9l-2.3 6.8zm4.3-7.6c0 .1 0 .2-.1.2-.1.1-.3.1-.4 0-.1-.1-.1-.1-.1-.2v-1.1c0-.5-.2-.9-.5-1.3-.7-.7-1.9-.7-2.6 0-.3.3-.5.8-.5 1.3v1.1c0 .1 0 .2-.1.2-.1.1-.3.1-.4 0-.1-.1-.1-.1-.1-.2v-1.1c0-.5-.2-.9-.5-1.3-.7-.7-1.9-.7-2.6 0-.3.3-.5.8-.5 1.3v1.1c0 .1 0 .2-.1.2-.1.1-.3.1-.4 0-.1-.1-.1-.1-.1-.2V9.3c0-1.2.5-2.4 1.3-3.2s2-1.3 3.2-1.3c1.2 0 2.4.5 3.2 1.3s1.3 2 1.3 3.2v2.2z" fill="#333333"></path></svg>