<svg xmlns:xlink="http://www.w3.org/1999/xlink" xmlns="http://www.w3.org/2000/svg" viewBox="0 0 24 24" data-testid="svg-icon" class="" height="24" width="24"><path d="M19.1 15.9c-.1-.4-.6-1-2-1.1-.8 0-1.8.2-2.7.5-.6.2-1.2.5-1.7.9V15c.1 0 .2.1.3.1.4.1.7.1 1.1.1.4 0 .7-.2 1.1-.3.3-.2.6-.4.9-.7.2-.3.4-.6.5-1 .1-.4.1-.8.1-1.1V12h.1c.3-.1.7-.3.9-.6.3-.3.5-.6.6-.9.1-.3.2-.7.2-1.1 0-.8-.3-1.5-.8-2-.3-.3-.6-.5-1-.7v-.1c0-.4 0-.7-.1-1.1-.1-.4-.3-.7-.5-1-.2-.3-.5-.5-.8-.7-.3-.2-.7-.3-1-.4-.4 0-.7 0-1.1.1-.4.1-.7.3-1 .5 0 0-.1 0-.1.1L12 4c-.3-.2-.6-.4-1-.5-.4-.1-.7-.1-1.1-.1-.5-.1-.9 0-1.2.2-.3.2-.6.5-.8.8-.3.3-.4.6-.5 1-.1.3-.1.7-.1 1.1v.1c-.3.1-.7.3-1 .6-.5.5-.8 1.2-.8 2s.3 1.5.8 2c.3.3.6.5 1 .6v.1c-.1.4 0 .8.1 1.1.1.4.3.7.5 1 .2.3.5.6.9.7.3.2.7.3 1.1.3h.3c.3 0 .6 0 .8-.1.1 0 .2-.1.3-.1V16c-.1-.1-.2-.2-.4-.2-.4-.2-.8-.5-1.3-.6-.5 0-1-.2-1.5-.2-.5-.1-.9-.1-1.3-.1s-.8.1-1.2.2c-.5.2-.7.6-.8.8s-.2.7.1 1.2c.1.3.4.6.7 1 .3.3.7.5 1.1.8.4.2.8.5 1.3.6.5.2.9.3 1.4.4.3.1.7.1 1.1.1h.2c.4 0 .7-.1 1-.2.1 0 .2.1.3.1.1 0 .2 0 .3-.1.3.1.6.2 1 .2h.2c.8 0 1.7-.2 2.5-.5.9-.4 1.8-.9 2.4-1.4.9-1 .8-1.8.7-2.2zm-8.6-2.2c-.2.1-.3.1-.5 0-.2 0-.3-.1-.5-.2s-.3-.2-.4-.3c-.1-.1-.2-.3-.2-.5s-.1-.4 0-.5c0-.2.1-.3.2-.5v-.1c.1-.2.1-.5 0-.8-.1-.2-.4-.4-.7-.4-.3 0-.7-.1-.9-.4-.4-.1-.5-.4-.5-.8 0-.3.1-.7.4-.9s.6-.4.8-.4c.3.1.7-.1.8-.4.1-.2.1-.5 0-.8-.1-.1-.2-.3-.2-.4v-.5c0-.2.1-.3.2-.5.2-.2.3-.3.5-.4.2-.1.3-.1.5-.2h.5c.2 0 .3.1.5.2.1.1.2.2.3.4v.1c.1.2.4.4.7.4.3 0 .5-.2.7-.4.1-.2.2-.3.3-.4.1-.1.3-.2.5-.2s.3-.1.5 0c.2 0 .3.1.5.2.1.1.3.2.4.3 0 .1.1.3.1.5s.1.3 0 .5c0 .2-.1.3-.2.5-.2.2-.2.5 0 .8.1.2.4.4.7.4.4 0 .7.1 1 .4.2.2.4.6.4.9 0 .2 0 .3-.1.5s-.2.3-.3.4c-.1.1-.3.2-.4.3-.2.1-.3.1-.4.1-.3 0-.6.1-.8.4-.1.2-.1.5 0 .8.1.2.2.3.2.5v.5c0 .2-.1.3-.2.5-.1.1-.2.3-.4.3-.2.1-.3.1-.5.2h-.5c-.2-.1-.3-.1-.5-.3-.1-.1-.2-.3-.3-.4 0-.1-.1-.1-.1-.2 0 0-.1 0-.1-.1l-.1-.1h-.6c-.1 0-.1.1-.2.1-.1.1-.1.1-.1.2-.1.2-.2.3-.3.4-.4.2-.6.2-.7.3zm.1 4.8c-.3 0-.6 0-1-.1s-.8-.2-1.1-.3c-.4-.1-.7-.3-1.1-.5-.3-.2-.6-.4-.8-.6-.2-.2-.3-.4-.3-.5.1 0 .3-.1.6-.1H7c.3 0 .6 0 .9.1.4.1.8.2 1.1.3.4.1.7.3 1.1.5.3.2.6.4.8.6.2.2.3.3.3.4v.1c-.1 0-.3.1-.6.1zm6.7-1.5c-.4.4-1.1.8-1.9 1.1-.8.3-1.5.4-2.1.4-.3 0-.4-.1-.5-.1v-.2c.1-.1.1-.2.3-.4.4-.4 1.1-.8 1.9-1.1.8-.3 1.5-.4 2.1-.4.4 0 .6.1.6.1-.1.1-.1.3-.4.6z" fill="#333333"></path><path d="M13.6 10.9c.4-.4.7-1 .7-1.6 0-.6-.2-1.2-.7-1.6-.9-.9-2.4-.9-3.3 0-.4.3-.7.9-.7 1.5s.2 1.2.7 1.6c.4.4 1 .7 1.6.7.7 0 1.2-.2 1.7-.6zm-2.2-1.1c-.1-.1-.2-.4-.2-.6 0-.2.1-.4.2-.6.1-.1.4-.2.6-.2.2 0 .4.1.6.2.2.2.2.4.2.6 0 .2-.1.4-.2.6-.4.3-.9.3-1.2 0z" fill="#333333"></path></svg>