<svg xmlns:xlink="http://www.w3.org/1999/xlink" xmlns="http://www.w3.org/2000/svg" viewBox="0 0 24 24" data-testid="svg-icon" class="" height="24" width="24"><path d="M6.6 11.1c.2 0 .5-.1.6-.3.2-.3.4-.5.7-.6s.6-.2.9-.2c.4 0 .8-.3.8-.8s-.4-.8-.8-.8c-.6 0-1.1.1-1.6.4-.5.2-.9.6-1.2 1.1-.2.3-.1.8.2 1 .1.1.2.2.4.2zM9.9 15c.7-.2 1.3-.7 1.7-1.2.4-.6.6-1.3.6-2 0-.4-.3-.8-.8-.8s-.8.3-.8.8c0 .4-.1.8-.4 1.1-.2.3-.6.6-.9.7-.4.1-.8.1-1.2 0-.4-.1-.7-.4-1-.7-.2-.3-.7-.4-1-.2-.3.2-.4.7-.2 1.1.4.6 1 1 1.7 1.2.3.1.7.2 1 .2.6 0 .9 0 1.3-.2z" fill="#333333"></path><path d="M8.8 10.8c-.3 0-.5.1-.7.3-.2.2-.3.4-.3.7 0 .3.1.5.3.7.2.2.4.3.7.3.3 0 .5-.1.7-.3s.3-.4.3-.7c0-.3-.1-.5-.3-.7a.9.9 0 0 0-.7-.3z" fill="#333333"></path><path d="M20.7 12.3v-.5c0-.6-.1-1.2-.3-1.7 0-.1 0-.1-.1-.2-.3-.7-.7-1.4-1.3-2-1-1-2.5-1.6-3.9-1.6H8.8c-1.5 0-2.9.6-3.9 1.6a5.52 5.52 0 0 0 3.9 9.4h6.4a5.52 5.52 0 0 0 5.5-4.8v-.2zm-15.9-.5A4 4 0 0 1 6 8.9c.8-.8 1.8-1.2 2.9-1.2s2.1.4 2.9 1.2a4 4 0 0 1 1.2 2.9 4 4 0 0 1-1.2 2.9c-.8.8-1.8 1.2-2.9 1.2s-2.1-.4-2.9-1.2a4 4 0 0 1-1.2-2.9zm10.4 4h-2.6s.1-.1.2-.1a5.52 5.52 0 0 0 0-7.8s-.1-.1-.2-.1h2.6A4 4 0 0 1 18.1 9c.2.2.3.3.4.5h-2.8c-.4 0-.8.3-.8.8s.3.8.8.8h3.4c0 .2.1.4.1.6h-.8c-.4 0-.8.3-.8.8s.3.8.8.8h.6c-.2.6-.5 1.1-1 1.6-.7.5-1.7.9-2.8.9z" fill="#333333"></path></svg>